<?xml version="1.0" encoding="UTF-8"?>
<svg version="1.1" xmlns="http://www.w3.org/2000/svg" width="2506" height="2160">
<path d="M0 0 C826.98 0 1653.96 0 2506 0 C2506 712.8 2506 1425.6 2506 2160 C1679.02 2160 852.04 2160 0 2160 C0 1447.2 0 734.4 0 0 Z " fill="#FEFEFE" transform="translate(0,0)"/>
<path d="M0 0 C2.70525586 0.00243514 5.41051169 0.00334048 8.11576843 0.00428772 C14.44745255 0.00736195 20.77911884 0.01552104 27.1107952 0.02563721 C34.33484236 0.03692178 41.5588905 0.04233949 48.78294432 0.04733264 C63.60921147 0.05770823 78.4354648 0.07522962 93.26171875 0.09765625 C93.49056649 51.5389476 93.66679445 102.98018755 93.77237204 154.42188775 C93.78487923 160.49390582 93.79782245 166.56592288 93.81103516 172.63793945 C93.81496981 174.45119674 93.81496981 174.45119674 93.81898396 176.30108548 C93.86250691 195.87903659 93.94135789 215.45669431 94.03324671 235.03447133 C94.12673518 255.1204669 94.18230084 275.20630873 94.2026037 295.29251295 C94.21633068 307.68872399 94.25969706 320.0841058 94.34088342 332.4800616 C94.39371035 340.97843646 94.40972738 349.47638213 94.39673252 357.9749093 C94.39032184 362.87976355 94.40020201 367.78316815 94.4537735 372.68776512 C94.50248234 377.17998254 94.50487462 381.66977762 94.4707077 386.16210718 C94.46648617 387.7854548 94.47914364 389.40895425 94.51055057 391.03200351 C94.73100702 403.13001067 94.73100702 403.13001067 91.13081813 407.95132172 C88.61533806 410.23925003 86.05123666 412.15965294 83.26171875 414.09765625 C81.57631212 415.57656878 79.9071021 417.07434033 78.26171875 418.59765625 C75.79917489 420.81509466 73.33570229 423.03139693 70.8671875 425.2421875 C64.49111647 430.95902017 58.19689064 436.76073605 51.90966797 442.57470703 C38.89681432 454.60051163 38.89681432 454.60051163 32.2421875 460.36328125 C29.9503872 462.37030163 27.70175123 464.42168476 25.44921875 466.47265625 C21.91011873 469.67418058 18.29068769 472.72911688 14.57421875 475.72265625 C10.79419587 478.78065229 7.30423692 481.93524411 3.92578125 485.42578125 C1.54532425 487.8174141 -0.99935983 489.99755242 -3.5546875 492.19921875 C-6.89867398 495.1065129 -10.16560964 498.0983439 -13.44140625 501.08203125 C-14.57835937 502.07976562 -14.57835937 502.07976562 -15.73828125 503.09765625 C-16.25261719 503.62818604 -16.76695312 504.15871582 -17.296875 504.70532227 C-21.10019214 506.87435403 -24.7968221 506.46695339 -29.09765625 506.390625 C-30.30059326 506.38609314 -30.30059326 506.38609314 -31.52783203 506.38146973 C-33.28664283 506.37224868 -35.04542656 506.35542444 -36.80410385 506.33187389 C-41.53990365 506.27182103 -46.27579732 506.22905328 -51.01177979 506.18623352 C-52.41737498 506.17337932 -52.41737498 506.17337932 -53.85136604 506.16026545 C-56.14700348 506.13928727 -58.44264187 506.11842041 -60.73828125 506.09765625 C-60.71074988 506.97538193 -60.68321852 507.8531076 -60.65485287 508.75743103 C-59.61882481 543.03157939 -59.43218953 577.31108765 -59.23963809 611.59779358 C-59.21062954 616.74948839 -59.17990742 621.90117234 -59.14906502 627.05285645 C-58.60797356 717.8965643 -58.42017261 808.74159069 -58.22823782 899.58657503 C-58.19091942 917.24570953 -58.15158084 934.90483848 -58.1105957 952.56396484 C-58.10787143 953.73791707 -58.10514716 954.91186929 -58.10234033 956.12139583 C-58.09136239 960.85061976 -58.08038272 965.57984369 -58.06939819 970.30906761 C-58.02662716 988.74717079 -57.98520802 1007.18527705 -57.94404254 1025.62338388 C-57.93186427 1031.07750044 -57.91963782 1036.53161688 -57.90727878 1041.98573303 C-57.78638412 1095.35645968 -57.7074956 1148.72678305 -57.73828125 1202.09765625 C-52.87750188 1201.97252081 -48.01674516 1201.84654758 -43.1560064 1201.71984476 C-41.50725653 1201.67697996 -39.85850101 1201.63433216 -38.20973951 1201.59191769 C-25.73837854 1201.27094486 -25.73837854 1201.27094486 -13.27080476 1200.82901162 C14.66175847 1199.7934714 14.66175847 1199.7934714 22.98558044 1207.35667419 C25.27932896 1209.90971651 27.2832823 1212.53066052 29.13571167 1215.41853333 C30.56235783 1217.5459749 32.25678007 1219.08096716 34.26171875 1220.66015625 C40.13958555 1225.63860809 45.68263136 1230.99144519 51.296875 1236.26220703 C53.08817544 1237.93554162 54.89061287 1239.595418 56.69921875 1241.25 C67.91742257 1251.56674102 78.62291311 1262.39596358 89.34765625 1273.22045898 C97.7533626 1281.70752356 97.7533626 1281.70752356 106.6328125 1289.69140625 C109.32297366 1292.01384754 111.78250299 1294.55442812 114.26171875 1297.09765625 C118.11022111 1300.99915004 122.02619555 1304.70611989 126.203125 1308.2578125 C128.82670656 1310.6026074 131.29161392 1313.0939674 133.76171875 1315.59765625 C136.77403632 1318.6508188 139.79720728 1321.63837995 143.07421875 1324.41015625 C147.6377597 1328.29622308 151.79757731 1332.58053002 155.98754883 1336.8605957 C158.95231062 1339.86933628 161.96524768 1342.74836944 165.16796875 1345.50390625 C170.36001281 1349.98567068 175.10340199 1354.89091842 179.90625 1359.78125 C183.96755093 1363.88709902 188.12033388 1367.79017172 192.49804688 1371.55664062 C194.69142999 1373.47311823 196.73405274 1375.50760052 198.76171875 1377.59765625 C202.04397715 1380.91898916 205.41661954 1384.03650944 208.953125 1387.08203125 C211.9901129 1389.7336146 214.97458536 1392.43897632 217.94921875 1395.16015625 C218.49610352 1395.65491455 219.04298828 1396.14967285 219.60644531 1396.65942383 C222.64786754 1399.45233058 225.27960436 1402.32671389 227.88012695 1405.54663086 C230.04142312 1407.97298085 232.53217464 1409.98706981 235 1412.09375 C240.4235953 1416.89911164 245.39947463 1422.20152053 250.484375 1427.359375 C255.03550607 1431.95025394 259.62700545 1436.39058884 264.53710938 1440.59570312 C267.72832523 1443.37491603 270.6243645 1446.44307621 273.57421875 1449.47265625 C275.65355082 1451.50363176 277.74644215 1453.39643013 279.94921875 1455.28515625 C285.89446913 1460.4384502 291.32200519 1466.11340158 296.83984375 1471.71484375 C301.21643473 1476.1317101 305.62137834 1480.41849699 310.375 1484.4296875 C312.26171875 1486.09765625 312.26171875 1486.09765625 314.00376606 1488.66390419 C317.67345765 1492.29021595 322.27521912 1491.70616461 327.15261382 1491.74772489 C328.52697389 1491.73415009 329.90132943 1491.72011103 331.27568054 1491.70565796 C332.738516 1491.7085548 334.20134849 1491.71364581 335.66416961 1491.72074187 C339.68726575 1491.73387767 343.70971214 1491.7157782 347.732741 1491.6926434 C352.07411406 1491.67311894 356.41543622 1491.68244473 360.75683594 1491.68823242 C369.28015766 1491.69506524 377.80322432 1491.67532512 386.32649382 1491.64706914 C396.31079355 1491.61512416 406.29504902 1491.61081169 416.27939246 1491.60787721 C434.17240095 1491.60180123 452.06529681 1491.57266278 469.95825195 1491.52978516 C487.17635306 1491.48856208 504.39440191 1491.45995366 521.61254883 1491.44775391 C523.18998357 1491.44663158 523.18998357 1491.44663158 524.79928567 1491.44548659 C529.03124632 1491.44250958 533.26320699 1491.43957238 537.49516771 1491.43670031 C556.05502369 1491.42377884 574.61486887 1491.40023014 593.17471173 1491.37506205 C596.12656029 1491.37112294 599.07840905 1491.36739358 602.03025794 1491.36370802 C643.29298761 1491.3112293 684.545453 1491.16074246 725.80276203 1490.46095085 C748.17714548 1490.08184467 770.54783344 1489.90561804 792.92506742 1489.82726479 C798.03604766 1489.80827554 803.14700443 1489.78422335 808.25796509 1489.76062012 C823.24129081 1489.69224842 838.2246437 1489.6309055 853.20800781 1489.57159424 C865.03890242 1489.5246867 876.86977983 1489.47564904 888.70063746 1489.42010736 C894.71693874 1489.39209622 900.73323546 1489.36839993 906.74956775 1489.34818268 C910.4648996 1489.33473392 914.18020546 1489.3173369 917.89551544 1489.29887199 C919.60306007 1489.29117609 921.31061285 1489.28508073 923.0181694 1489.28077888 C931.23178642 1489.25928153 939.36377951 1489.11198375 947.54835129 1488.3325882 C952.06663366 1487.941381 956.58407655 1487.87134757 961.11694336 1487.79882812 C962.7072383 1487.76967316 962.7072383 1487.76967316 964.32966042 1487.7399292 C967.96189094 1487.67635482 971.59418089 1487.62063978 975.2265625 1487.56640625 C976.53941664 1487.54586685 977.85227077 1487.52532745 979.20490837 1487.50416565 C1029.40550059 1486.72992078 1079.6189684 1486.76439918 1129.82421875 1486.59765625 C1149.11069614 1486.53352816 1168.39716301 1486.4674199 1187.68360519 1486.39336896 C1190.20047344 1486.38371236 1192.71734203 1486.37414713 1195.23421097 1486.36467242 C1224.39411851 1486.25437474 1253.54733902 1486.07684007 1282.703125 1485.5703125 C1327.37278686 1484.79848912 1372.04995268 1484.98335393 1416.72470254 1485.02562916 C1429.03546241 1485.03706852 1441.34622304 1485.0423698 1453.65698695 1485.04733264 C1478.85857012 1485.05762069 1504.06014381 1485.0750598 1529.26171875 1485.09765625 C1529.31015014 1495.20702263 1529.34456925 1505.31635772 1529.36534309 1515.42582035 C1529.37536167 1520.13068547 1529.38863699 1524.83546676 1529.41259766 1529.5402832 C1529.54867838 1556.90018367 1529.04715738 1584.22236171 1528.32118368 1611.57058406 C1528.19997176 1616.15776379 1528.08168842 1620.74501908 1527.96311951 1625.33226776 C1527.7320992 1634.25413788 1527.497969 1643.17592319 1527.26171875 1652.09765625 C1440.32095388 1652.11504283 1353.38018879 1652.13090083 1266.43942261 1652.13999939 C1265.12374082 1652.14013745 1263.80805902 1652.1402755 1262.45250809 1652.14041774 C1234.46522572 1652.14334691 1206.47794334 1652.14606548 1178.49066093 1652.14853593 C1164.40053292 1652.1497799 1150.31040491 1652.15106481 1136.22027691 1652.15238869 C1134.09680915 1652.15258797 1131.97334138 1652.15278607 1129.84987362 1652.15298413 C1088.91496175 1652.15681508 1047.98005104 1652.16319402 1007.04513991 1652.17181844 C940.41160399 1652.18584379 873.77806877 1652.19526745 807.14453125 1652.1953125 C806.47733393 1652.19531372 805.81013661 1652.19531494 805.1227212 1652.19531619 C624.14269596 1652.19557961 624.14269596 1652.19557961 168.96658057 1651.21893656 C136.25186887 1651.12511816 103.5371475 1651.03535673 70.82241821 1650.94789124 C69.65477285 1650.94476838 68.48712749 1650.94164553 67.28409894 1650.93842805 C53.26214925 1650.90093144 39.24019929 1650.86354019 25.21824918 1650.82620195 C5.00813945 1650.77238482 -15.20196988 1650.71842128 -35.41207886 1650.6643219 C-36.91320124 1650.66030487 -36.91320124 1650.66030487 -38.44464933 1650.65620669 C-105.54254478 1650.47662349 -172.640415 1650.28780096 -239.73828125 1650.09765625 C-240.0806092 1551.33155607 -240.34417013 1452.56516562 -240.86328697 824.74914691 C-240.86328125 821.4726331 -240.86328697 818.1961193 -240.86329651 814.91960549 C-240.86357653 710.33148964 -240.85154789 605.7433691 -239.73828125 4.09765625 C-225.9071067 3.84512399 -212.07590728 3.59399994 -198.24467772 3.34449774 C-191.816788 3.22850423 -185.38890656 3.11209048 -178.96104431 2.99458313 C-139.7017015 2.27733801 -100.44153612 1.63632302 -61.1766634 1.31297207 C-55.12425643 1.24417851 -49.09533212 1.07653039 -43.0532403 0.73163748 C-28.70347416 -0.06329129 -14.36751046 -0.02956144 0 0 Z " fill="#BBBBBB" transform="translate(460.73828125,219.90234375)"/>
<path d="M0 0 C0 553.74 0 1107.48 0 1678 C-60.72 1678 -121.44 1678 -184 1678 C-184 1622.56 -184 1567.12 -184 1510 C-175.42 1510 -166.84 1510 -158 1510 C-158 1186.6 -158 863.2 -158 530 C-174.5 530 -191 530 -208 530 C-208 482.48 -208 434.96 -208 386 C-248.59 386 -289.18 386 -331 386 C-331.26596842 353.24313938 -331.26596842 353.24313938 -331.35595703 341.50366211 C-331.36170439 340.75402061 -331.36745175 340.00437912 -331.37337327 339.23202121 C-332.02576052 253.92420521 -332.47336248 168.62052617 -331.5625 83.3125 C-331.5526432 82.37122631 -331.54278641 81.42995262 -331.53263092 80.46015549 C-331.27125902 55.63128368 -330.77637859 30.81824048 -330 6 C-316.40138997 5.24937763 -302.81571737 4.8882531 -289.19921875 4.75390625 C-287.9947664 4.7419478 -287.9947664 4.7419478 -286.76598167 4.72974777 C-282.52183077 4.68838807 -278.27766035 4.64952705 -274.03347778 4.61157227 C-244.46205893 4.34426039 -214.9123006 3.83004277 -185.35355759 2.93296051 C-154.16979811 1.98999309 -122.9875067 1.61262336 -91.79100895 1.36501122 C-87.08461227 1.32746501 -82.37823902 1.28752142 -77.671875 1.24609375 C-76.77095564 1.23829266 -75.87003628 1.23049156 -74.94181633 1.22245407 C-65.47359742 1.13648966 -56.03486942 0.98356468 -46.578125 0.47265625 C-31.06676061 -0.22042909 -15.52684103 0 0 0 Z " fill="#BBBBBB" transform="translate(2280,192)"/>
<path d="M0 0 C3.91475809 0.02542051 5.44718853 0.13081312 8.875 2.1875 C11.92832881 5.64793931 11.87575321 7.6807698 11.87880117 12.22978956 C11.88207336 13.50157724 11.88534555 14.77336492 11.88871691 16.08369163 C11.88730661 17.51112854 11.88580458 18.93856536 11.88422108 20.36600208 C11.88617252 21.87612432 11.88856079 23.38624605 11.89134905 24.89636698 C11.89777816 29.079991 11.89790836 33.26359588 11.89707164 37.4472239 C11.89724057 41.98589233 11.90314023 46.52455379 11.9083125 51.06321877 C11.91765935 60.08027388 11.92156404 69.09732408 11.92383147 78.11438344 C11.92678809 88.90857353 11.93548224 99.70275707 11.94424575 110.49694374 C11.96511227 136.58937424 11.975563 162.68180589 11.98437535 188.7742428 C11.9885783 201.11013155 11.99380072 213.44601981 11.99905988 225.78190814 C12.01695104 267.9835096 12.03194889 310.1851112 12.03938007 352.38671589 C12.03985484 355.03722893 12.04033072 357.68774196 12.04080774 360.338255 C12.0411623 362.30993736 12.0411623 362.30993736 12.04152403 364.32145168 C12.04260491 370.31418629 12.04369418 376.3069209 12.04479821 382.29965551 C12.04504344 383.63437908 12.0452873 384.96910264 12.04552978 386.3038262 C12.05332137 429.18041118 12.07570867 472.05696881 12.1082062 514.93354184 C12.14303299 560.89877345 12.16367954 606.86398776 12.16702431 652.82923287 C12.16744188 657.79779351 12.16792144 662.76635415 12.16844749 667.73491478 C12.16857069 668.95837284 12.16869388 670.1818309 12.1688208 671.44236345 C12.1711569 691.16676057 12.18683957 710.89112571 12.20728934 730.61551141 C12.22750233 750.42511258 12.23304614 770.23467517 12.22351871 790.04428474 C12.21828621 801.82541812 12.22426338 813.60642342 12.24605338 825.38753847 C12.25949604 833.24681879 12.25854272 841.10601031 12.24565142 848.96529138 C12.23871101 853.45009056 12.23823321 857.93464373 12.25521151 862.41942159 C12.27051479 866.49473898 12.26760252 870.56961061 12.24980123 874.64491414 C12.24663636 876.11450113 12.25025994 877.58412137 12.26129298 879.05367035 C12.27525615 881.04212384 12.26231505 883.03071237 12.24794465 885.01916295 C12.24834484 886.12227839 12.24874502 887.22539383 12.24915733 888.36193701 C11.61656337 892.10125569 10.52480368 893.74449366 7.75 896.3125 C5.1591841 896.93821917 5.1591841 896.93821917 2.15383339 896.93924582 C1.00486902 896.95176341 -0.14409534 896.964281 -1.32787681 896.97717792 C-2.59328433 896.96547209 -3.85869186 896.95376626 -5.16244507 896.9417057 C-6.52342704 896.94691967 -7.88440209 896.95432466 -9.24536157 896.96372753 C-13.00574623 896.98328754 -16.76549335 896.97150245 -20.52586821 896.95483777 C-24.60900631 896.94220151 -28.69204349 896.95843492 -32.77516747 896.97105443 C-39.9381104 896.9891543 -47.1008651 896.98853987 -54.26381683 896.97581863 C-64.91510365 896.95695334 -75.56623084 896.96655023 -86.21751648 896.98186017 C-105.23752622 897.00823009 -124.25745216 897.00589057 -143.27746993 896.99146561 C-159.9218664 896.97890381 -176.56623209 896.97559684 -193.21063232 896.98157883 C-194.86464719 896.98215172 -194.86464719 896.98215172 -196.5520765 896.98273618 C-201.02783636 896.98429279 -205.50359619 896.98588478 -209.97935601 896.987535 C-251.99314117 897.00284112 -294.00687285 896.98894507 -336.02064976 896.96205051 C-373.3738212 896.93832125 -410.72690743 896.94044433 -448.08007812 896.96435547 C-490.01543041 896.99110989 -531.95073541 897.00175576 -573.88609505 896.98629415 C-578.35385258 896.98469048 -582.82161012 896.98312629 -587.28936768 896.98157883 C-588.93956581 896.98098575 -588.93956581 896.98098575 -590.62310128 896.98038069 C-607.25987587 896.97468557 -623.89661636 896.98135911 -640.53338623 896.99397659 C-659.44402763 897.00824681 -678.35457186 897.00475462 -697.26520109 896.97757287 C-707.85792307 896.96285072 -718.45043481 896.96199132 -729.04315149 896.98080375 C-736.10894304 896.99197194 -743.1745652 896.98511773 -750.24033154 896.9632799 C-754.2727455 896.95132698 -758.30474024 896.94743961 -762.33714175 896.96530981 C-766.00085971 896.98138145 -769.663784 896.97471876 -773.32744333 896.94940651 C-775.27567765 896.94194276 -777.22395793 896.95915614 -779.17212319 896.97717792 C-780.89556974 896.95840153 -780.89556974 896.95840153 -782.65383339 896.93924582 C-783.64559912 896.93890702 -784.63736486 896.93856823 -785.6591841 896.93821917 C-788.25 896.3125 -788.25 896.3125 -790.56835121 894.1664462 C-792.54342554 890.81452402 -792.75080997 888.89372421 -792.75254732 885.02261496 C-792.76281762 883.74408539 -792.77308792 882.46555583 -792.78366944 881.14828295 C-792.77485125 879.72880454 -792.7656672 878.30932837 -792.75615788 876.88985443 C-792.76063307 875.37623032 -792.76686012 873.86261055 -792.77468321 872.34900004 C-792.79115444 868.16953841 -792.78257592 863.99043923 -792.77007158 859.81097753 C-792.76085737 855.27171026 -792.77473567 850.73250537 -792.78571075 846.19325018 C-792.80172992 838.23097627 -792.80277335 830.26880799 -792.79411316 822.30652428 C-792.78126984 810.4665869 -792.79118342 798.62674546 -792.80561271 786.78681387 C-792.83058347 765.6439266 -792.83242751 744.50108404 -792.82433859 723.35818632 C-792.81727435 704.85602856 -792.81720007 686.35388819 -792.82420158 667.85173035 C-792.8251129 665.37286809 -792.82602366 662.89400584 -792.82693387 660.41514358 C-792.82831695 656.68004036 -792.82970804 652.94493715 -792.83112001 649.20983394 C-792.84410666 614.47051763 -792.84920772 579.73120717 -792.8375864 544.99188995 C-792.83714843 543.6815148 -792.83671046 542.37113964 -792.83625922 541.02105614 C-792.83287828 531.04608456 -792.82930201 521.07111304 -792.82569179 511.09614154 C-792.81044197 468.90668 -792.81843858 426.71728634 -792.84692383 384.52783203 C-792.87833868 337.90979738 -792.89333071 291.29180156 -792.88312382 244.67375612 C-792.88208698 239.70692731 -792.88109976 234.74009848 -792.8801403 229.77326965 C-792.87989142 228.55025109 -792.87964253 227.32723254 -792.8793861 226.06715281 C-792.87594041 207.57365996 -792.88527354 189.0802014 -792.90091133 170.5867157 C-792.91864559 149.56517325 -792.91886285 128.54371448 -792.89555968 107.52217567 C-792.88302092 95.74767336 -792.88437905 83.97336312 -792.90544054 72.19887191 C-792.91811336 64.34410497 -792.91276368 56.48948677 -792.89245573 48.63473612 C-792.88137958 44.15253938 -792.87836118 39.67072169 -792.89713103 35.18854207 C-792.91402477 31.11556417 -792.90815108 27.04329541 -792.88366519 22.97036188 C-792.87889959 21.50166817 -792.88261404 20.03291784 -792.89558421 18.56427366 C-792.91192588 16.57703348 -792.89465297 14.58960104 -792.87559515 12.60238504 C-792.8754801 11.49994083 -792.87536504 10.39749661 -792.8752465 9.26164499 C-792.25 6.3125 -792.25 6.3125 -790.5859003 3.41938218 C-787.25 1.3125 -787.25 1.3125 -773.25 1.3125 C-773.25 290.3925 -773.25 579.4725 -773.25 877.3125 C-520.8 877.3125 -268.35 877.3125 -8.25 877.3125 C-8.27320313 814.66277344 -8.29640625 752.01304687 -8.3203125 687.46484375 C-8.32991602 650.25528608 -8.33938433 613.04572937 -8.34632993 575.83617127 C-8.35041248 554.01987325 -8.35458839 532.20357525 -8.35905199 510.3872773 C-8.35959167 507.74832318 -8.36012841 505.10936906 -8.36066218 502.47041494 C-8.36920066 460.37663669 -8.38421179 418.28286379 -8.40259444 376.18908878 C-8.4214482 332.93813744 -8.43376823 289.68718907 -8.43782998 246.43623369 C-8.43840632 240.33175733 -8.43905759 234.22728099 -8.43975449 228.12280464 C-8.43988933 226.92131884 -8.44002418 225.71983303 -8.44016311 224.48193856 C-8.44252945 205.11675226 -8.45181337 185.75157512 -8.46366407 166.38639256 C-8.475422 146.93274684 -8.47994011 127.47911022 -8.47700275 108.02546107 C-8.47547797 96.45808556 -8.47956945 84.89074329 -8.49159509 73.32337376 C-8.49907429 65.60395351 -8.49934185 57.88455512 -8.49366363 50.16513339 C-8.49063357 45.76187407 -8.49081664 41.35867779 -8.49976636 36.95542514 C-8.50784231 32.95178472 -8.50675652 28.9482567 -8.49827995 24.94461807 C-8.49684834 23.50317529 -8.49878977 22.06172432 -8.50447049 20.62029202 C-8.55414089 7.16670302 -8.55414089 7.16670302 -6.25 1.3125 C-4.53310511 -0.40439489 -2.34121863 0.05946946 0 0 Z " fill="#BBBBBE" transform="translate(1566.25,385.6875)"/>
<path d="M0 0 C263.01 0 526.02 0 797 0 C798.15254629 26.50856478 798.15254629 26.50856478 798.1328125 34.69921875 C798.13376923 35.66890091 798.13472595 36.63858307 798.13571167 37.63764954 C798.13637942 39.65597602 798.13462605 41.67430485 798.13037109 43.69262695 C798.12508134 46.6421441 798.13032548 49.59150345 798.13671875 52.54101562 C798.12473196 71.05461706 797.51468315 89.47140675 797 108 C768.29 108 739.58 108 710 108 C710 81.93 710 55.86 710 29 C504.41 29 298.82 29 87 29 C87 55.07 87 81.14 87 108 C58.29 108 29.58 108 0 108 C0 72.36 0 36.72 0 0 Z " fill="#BBBCBD" transform="translate(766,210)"/>
<path d="M0 0 C4.35723482 1.58350814 6.82291549 4.97939007 9.6875 8.4375 C10.21786865 9.06712646 10.7482373 9.69675293 11.29467773 10.34545898 C15.14011099 14.923687 18.93208523 19.54617054 22.69140625 24.1953125 C24.42425721 26.30053583 26.17724857 28.3718678 27.96484375 30.4296875 C28.46878662 31.01290771 28.97272949 31.59612793 29.49194336 32.19702148 C30.47520441 33.33182285 31.46405932 34.46180862 32.45922852 35.58618164 C34.78592834 38.27890749 36.58264176 40.3915902 37 44 C30.7799213 49.7628969 24.48129374 55.32280121 17.8828125 60.65234375 C14.71984078 63.22815134 11.60678889 65.85701325 8.5 68.5 C4.55365475 71.85465374 0.58357343 75.17222304 -3.4375 78.4375 C-7.68392382 81.89274151 -11.85296294 85.42697834 -16 89 C-21.01319488 93.31928956 -26.0853732 97.55097119 -31.22265625 101.72265625 C-34.34396667 104.28204299 -37.42439842 106.88605424 -40.5 109.5 C-49.53072776 117.16880357 -58.73120315 124.62115305 -68 132 C-73.58407967 127.78091758 -77.58061527 122.89333589 -81.80541992 117.38500977 C-85.27237116 112.87791393 -88.94430865 108.6448783 -92.7890625 104.453125 C-103.4635514 92.60934579 -103.4635514 92.60934579 -105 88 C-104.42894531 87.55011719 -103.85789062 87.10023437 -103.26953125 86.63671875 C-97.72282169 82.23638796 -92.28418879 77.72827444 -86.89208984 73.14160156 C-82.5535166 69.45553142 -78.16085373 65.84069513 -73.74609375 62.24609375 C-69.79356507 59.0132289 -65.87951018 55.73480928 -61.9609375 52.4609375 C-59.19689625 50.16364728 -56.41464484 47.89107514 -53.625 45.625 C-48.74411341 41.64433456 -43.96518959 37.55470505 -39.1940918 33.4440918 C-34.78343869 29.65154582 -30.30339742 25.95388566 -25.7890625 22.28515625 C-22.6056262 19.67687861 -19.45450546 17.03292529 -16.3125 14.375 C-15.76352051 13.91109863 -15.21454102 13.44719727 -14.64892578 12.96923828 C-10.86625712 9.76201937 -7.14820697 6.49097297 -3.48828125 3.14453125 C-2 2 -2 2 0 2 C0 1.34 0 0.68 0 0 Z " fill="#ACE6AD" transform="translate(576,1284)"/>
<path d="M0 0 C2.98692156 1.80771606 4.98087752 4.36597591 7.13671875 7.0546875 C7.86181641 7.93543945 7.86181641 7.93543945 8.6015625 8.83398438 C10.05976455 10.60876976 11.50536797 12.39321948 12.94921875 14.1796875 C14.44880836 16.01335653 15.94877713 17.84671558 17.44921875 19.6796875 C18.16335938 20.55882812 18.8775 21.43796875 19.61328125 22.34375 C21.34005631 24.44013577 23.0814695 26.51545051 24.84765625 28.578125 C25.34201172 29.15626953 25.83636719 29.73441406 26.34570312 30.33007812 C27.30472713 31.44872831 28.26679156 32.56478182 29.23242188 33.67773438 C31.81623867 36.69281781 34.01607249 39.71026606 35.94921875 43.1796875 C12.62366989 63.2179776 12.62366989 63.2179776 0.75 72.875 C-2.3185362 75.40001584 -5.34127377 77.97442774 -8.36328125 80.5546875 C-12.87763166 84.40690624 -17.48257821 88.11051938 -22.17578125 91.7421875 C-27.42745279 95.8104546 -32.33849908 100.12356642 -37.20703125 104.6484375 C-40.38427378 107.4765325 -43.68407184 110.08343484 -47.05078125 112.6796875 C-54.84458419 118.69597512 -62.12371064 125.17281193 -69.05078125 132.1796875 C-72.76641659 130.94114239 -73.64536716 129.48951572 -76.05078125 126.4296875 C-76.84484375 125.43453125 -77.63890625 124.439375 -78.45703125 123.4140625 C-79.08931641 122.62032227 -79.08931641 122.62032227 -79.734375 121.81054688 C-81.95636075 119.05779005 -84.25554586 116.37138725 -86.55078125 113.6796875 C-90.79452618 108.6871771 -94.97888359 103.65129828 -99.09765625 98.5546875 C-100.73903806 96.55876722 -102.43754707 94.65233495 -104.17578125 92.7421875 C-106.05078125 90.1796875 -106.05078125 90.1796875 -105.96484375 88.2734375 C-104.68025058 85.33095058 -102.83462579 84.0761569 -100.30078125 82.1171875 C-99.305625 81.33214844 -98.31046875 80.54710937 -97.28515625 79.73828125 C-96.49141602 79.11542236 -96.49141602 79.11542236 -95.68164062 78.47998047 C-92.91788175 76.27642063 -90.23835322 73.9750214 -87.55078125 71.6796875 C-82.70232325 67.55735806 -77.79913962 63.50974664 -72.86328125 59.4921875 C-69.73278459 56.91822358 -66.63905664 54.30399664 -63.55078125 51.6796875 C-58.70118744 47.55867116 -53.79917319 43.50977396 -48.86328125 39.4921875 C-45.16984215 36.4553598 -41.52779639 33.36007795 -37.88452148 30.26342773 C-34.49124016 27.3842343 -31.06810339 24.54764513 -27.61328125 21.7421875 C-22.66937612 17.71892159 -17.82369193 13.58958393 -12.99633789 9.42797852 C-11.88923464 8.47368986 -10.77904129 7.52297235 -9.66552734 6.57617188 C-8.57152492 5.63004338 -7.49653294 4.66156025 -6.43994141 3.67382812 C-2.65589473 0.23270697 -2.65589473 0.23270697 0 0 Z " fill="#ACE6AD" transform="translate(576.05078125,1207.8203125)"/>
<path d="M0 0 C3.07433221 1.70196949 5.02741977 4.28550485 7.19140625 6.984375 C7.91650391 7.86512695 7.91650391 7.86512695 8.65625 8.76367188 C10.11445205 10.53845726 11.56005547 12.32290698 13.00390625 14.109375 C14.50349586 15.94304403 16.00346463 17.77640308 17.50390625 19.609375 C18.21546875 20.4859375 18.92703125 21.3625 19.66015625 22.265625 C21.41112307 24.39013141 23.17867451 26.49049919 24.97265625 28.578125 C25.47603516 29.16529297 25.97941406 29.75246094 26.49804688 30.35742188 C27.48244683 31.50269653 28.47058328 32.64477288 29.46289062 33.78320312 C31.56168158 36.22724974 32.97383315 38.01915571 34.00390625 41.109375 C34.66390625 41.109375 35.32390625 41.109375 36.00390625 41.109375 C34.54488445 44.65940129 32.72973211 46.36951023 29.69140625 48.671875 C25.61100319 51.83770496 21.62257979 55.07476153 17.69140625 58.421875 C17.14661621 58.8844873 16.60182617 59.34709961 16.04052734 59.82373047 C14.3606289 61.2510791 12.68206242 62.67997852 11.00390625 64.109375 C4.27360979 69.84201315 -2.47656605 75.52744786 -9.40625 81.01953125 C-13.02820369 83.9422239 -16.56739301 86.95871727 -20.11157227 89.97485352 C-23.52078465 92.87240923 -26.95961653 95.72682291 -30.43359375 98.546875 C-35.32015216 102.52165575 -40.09496133 106.61507067 -44.86376953 110.72924805 C-49.05145941 114.33047681 -53.32861064 117.79640326 -57.6640625 121.21875 C-61.56206813 124.37894217 -65.28216288 127.73633633 -68.99609375 131.109375 C-71.94921314 129.79842005 -73.82373984 128.4752722 -75.9140625 126.01953125 C-76.44161133 125.40553467 -76.96916016 124.79153809 -77.51269531 124.15893555 C-78.0640918 123.50320557 -78.61548828 122.84747559 -79.18359375 122.171875 C-79.75948242 121.49745361 -80.33537109 120.82303223 -80.92871094 120.12817383 C-84.97846783 115.36863662 -88.93649887 110.53716681 -92.86328125 105.67578125 C-95.80438443 102.13676149 -98.91194444 98.76228053 -102.05078125 95.3984375 C-104.01211616 93.09052132 -105.51488431 90.74574149 -106.99609375 88.109375 C-102.21312534 83.71311467 -97.41656259 79.3770715 -92.30859375 75.359375 C-87.91989306 71.90370516 -83.70146381 68.28324828 -79.49609375 64.609375 C-73.7782238 59.6191305 -67.95323627 54.81238225 -61.99609375 50.109375 C-55.96551987 45.25549846 -50.03769897 40.2983705 -44.18359375 35.234375 C-39.47113949 31.15893154 -34.6720151 27.23627194 -29.74609375 23.421875 C-24.78619319 19.58010231 -20.08218884 15.55879564 -15.4453125 11.328125 C-12.70096663 8.84201902 -9.9342812 6.39249319 -7.12109375 3.984375 C-6.23679687 3.21867188 -5.3525 2.45296875 -4.44140625 1.6640625 C-1.99609375 0.109375 -1.99609375 0.109375 0 0 Z " fill="#ACE6AC" transform="translate(556.99609375,907.890625)"/>
<path d="M0 0 C3.76381862 1.50721148 5.58463482 3.64916931 8.0625 6.8125 C8.84753906 7.79863281 9.63257813 8.78476562 10.44140625 9.80078125 C10.85664551 10.32365723 11.27188477 10.8465332 11.69970703 11.38525391 C13.91377227 14.13475212 16.2093777 16.81426337 18.5 19.5 C23.40717767 25.27420959 28.23274221 31.1093686 33 37 C33.74378906 37.886875 34.48757813 38.77375 35.25390625 39.6875 C37 42 37 42 37 44 C35.51261765 45.35382149 33.95569449 46.63139886 32.375 47.875 C27.96651429 51.40066395 23.64290362 54.99328855 19.375 58.6875 C13.41083962 63.83244858 7.35170154 68.85334642 1.26074219 73.84716797 C-3.68879575 77.90876015 -8.59185623 82.02014323 -13.46899414 86.16821289 C-17.6638979 89.73061978 -21.91940927 93.21347266 -26.1875 96.6875 C-29.8809391 99.7243277 -33.52298486 102.81960955 -37.16625977 105.91625977 C-41.42782835 109.53219346 -45.75002237 113.06813303 -50.08984375 116.58984375 C-52.31541562 118.43303549 -54.51016159 120.29688746 -56.69140625 122.19140625 C-57.32312744 122.73933838 -57.95484863 123.28727051 -58.60571289 123.85180664 C-59.8467118 124.93158286 -61.08431975 126.01527163 -62.31811523 127.10327148 C-64.86443387 129.3186449 -66.76413872 130.92137957 -70 132 C-76.72508655 124.10831681 -83.35745866 116.14837066 -89.91723633 108.11865234 C-93.92465028 103.23720711 -98.05653797 98.54354167 -102.42578125 93.98046875 C-104.0781589 91.90167106 -104.4543973 90.54890988 -105 88 C-97.32918268 81.30226881 -89.64674634 74.64223337 -81.73046875 68.234375 C-78.68033526 65.73841454 -75.684122 63.1846333 -72.6875 60.625 C-68.1287656 56.73650729 -63.48180141 52.98810714 -58.75 49.3125 C-54.07407312 45.67920425 -49.57780537 41.93171372 -45.19140625 37.94921875 C-41.86909641 34.9940804 -38.40527229 32.21922234 -34.953125 29.41796875 C-31.77174797 26.8131111 -28.63226386 24.16346452 -25.5 21.5 C-21.42991695 18.03979787 -17.33233141 14.62090024 -13.1875 11.25 C-8.70095765 7.59892814 -4.31834037 3.84814858 0 0 Z " fill="#ACE6AC" transform="translate(561,824)"/>
<path d="M0 0 C8.29825407 3.44983596 14.09297409 13.2575541 19.59765625 20.05859375 C22.74678792 23.91435984 25.96615014 27.70809876 29.19482422 31.49731445 C31.85284327 34.62217688 34.45392008 37.78327431 37 41 C35.63880947 44.13993718 34.20621833 45.93421203 31.54296875 48.06640625 C30.84896973 48.62884033 30.1549707 49.19127441 29.43994141 49.77075195 C28.69663574 50.36202881 27.95333008 50.95330566 27.1875 51.5625 C25.63609745 52.81694034 24.08532229 54.07215697 22.53515625 55.328125 C21.76574707 55.94880859 20.99633789 56.56949219 20.20361328 57.20898438 C17.13939744 59.69946603 14.12829522 62.24916038 11.125 64.8125 C7.30481171 68.06369917 3.45643751 71.27473853 -0.4375 74.4375 C-5.30129025 78.39508188 -10.05881231 82.46542446 -14.80834961 86.55834961 C-19.2015625 90.33640456 -23.66780399 94.01385565 -28.16796875 97.6640625 C-31.42671603 100.35196715 -34.61892041 103.11036931 -37.8125 105.875 C-43.10903771 110.45508022 -48.53602492 114.82334984 -54.07006836 119.11206055 C-58.8994269 122.8723719 -63.50223767 126.8473041 -68 131 C-72.17884858 129.43781361 -74.51469712 126.35591782 -77.25 123 C-77.73597656 122.41476562 -78.22195313 121.82953125 -78.72265625 121.2265625 C-82.16426525 117.06757326 -85.53230074 112.85057733 -88.88671875 108.62109375 C-91.48555987 105.39776216 -94.14088678 102.2256058 -96.8125 99.0625 C-97.28107422 98.50626953 -97.74964844 97.95003906 -98.23242188 97.37695312 C-100.90402168 94.22326409 -100.90402168 94.22326409 -103.88671875 91.37109375 C-105 90 -105 90 -104.98046875 88.0625 C-103.62395961 85.20896682 -101.81286272 83.92728689 -99.3125 82 C-97.82169922 80.824375 -97.82169922 80.824375 -96.30078125 79.625 C-95.49761475 78.99271484 -95.49761475 78.99271484 -94.67822266 78.34765625 C-91.72156745 75.97338556 -88.86668148 73.48146993 -86 71 C-79.49312638 65.39546903 -72.87893276 59.93747699 -66.19580078 54.54394531 C-58.35071139 48.21185154 -50.56808847 41.82954808 -42.93823242 35.23901367 C-38.63766119 31.52865665 -34.25823392 27.92678481 -29.84765625 24.34765625 C-26.50330874 21.59051928 -23.21937294 18.76841847 -19.9375 15.9375 C-6.37390887 4.24927258 -6.37390887 4.24927258 0 0 Z " fill="#ACE6AC" transform="translate(555,987)"/>
<path d="M0 0 C3.11698584 2.03401193 5.29907515 4.7327987 7.65234375 7.5703125 C8.42916504 8.49106567 8.42916504 8.49106567 9.22167969 9.43041992 C13.75498034 14.82814414 18.1847146 20.31091447 22.60986328 25.79736328 C26.66632818 30.81382109 30.84747261 35.69530159 35.21484375 40.4453125 C33.71259529 44.18424201 31.61319077 45.98624855 28.46484375 48.4453125 C23.94210885 52.04334669 19.52209114 55.72561416 15.15234375 59.5078125 C10.46009611 63.55572888 5.69962433 67.48278465 0.8359375 71.32421875 C-2.40585316 73.94760523 -5.56459718 76.65966013 -8.72265625 79.3828125 C-14.66450059 84.50440758 -20.69867746 89.49612678 -26.78515625 94.4453125 C-35.56224442 101.61612144 -44.28954933 108.8338965 -52.87353516 116.23510742 C-66.26821222 127.76734981 -66.26821222 127.76734981 -71.78515625 131.4453125 C-72.2234375 130.88585937 -72.66171875 130.32640625 -73.11328125 129.75 C-77.70277754 123.94783192 -82.44510827 118.30690558 -87.27685547 112.70629883 C-91.19973059 108.15112226 -95.0283781 103.5326467 -98.80078125 98.8515625 C-100.6047976 96.66401512 -102.48697798 94.58978531 -104.41015625 92.5078125 C-106.78515625 89.4453125 -106.78515625 89.4453125 -106.73046875 87.5078125 C-105.40340447 84.61239953 -103.550005 83.32709586 -101.03515625 81.3828125 C-100.03226562 80.59132813 -99.029375 79.79984375 -97.99609375 78.984375 C-97.20090332 78.36030762 -97.20090332 78.36030762 -96.38964844 77.72363281 C-93.76150839 75.62975861 -91.21383593 73.44116885 -88.66015625 71.2578125 C-82.85901484 66.32263095 -76.98364642 61.48117715 -71.09667969 56.64892578 C-66.13209743 52.56855467 -61.21154209 48.44060879 -56.31640625 44.27734375 C-52.12146372 40.71480462 -47.86583581 37.23191214 -43.59765625 33.7578125 C-40.46715959 31.18384858 -37.37343164 28.56962164 -34.28515625 25.9453125 C-29.44749056 21.83443227 -24.55898272 17.793843 -19.6328125 13.7890625 C-15.72170078 10.57004051 -11.86657217 7.28612307 -8.0234375 3.98632812 C-2.45776807 -0.76368286 -2.45776807 -0.76368286 0 0 Z " fill="#ACE6AD" transform="translate(566.78515625,742.5546875)"/>
<path d="M0 0 C5.27667475 4.15397799 9.36027903 8.6931054 13.54296875 13.9375 C16.15877031 17.19789495 18.84972646 20.3830077 21.5625 23.5625 C34.78217787 39.13403205 34.78217787 39.13403205 37 44 C36.36835937 44.51046875 35.73671875 45.0209375 35.0859375 45.546875 C29.63444253 49.97719656 24.2559464 54.47397953 18.9375 59.0625 C14.24452566 63.1096058 9.48482266 67.03743892 4.62109375 70.87890625 C0.75766162 74.00534984 -2.99239178 77.25985396 -6.75561523 80.50561523 C-11.18396826 84.31860206 -15.68157551 88.03563188 -20.21875 91.71875 C-23.3638359 94.2984272 -26.46486422 96.92624299 -29.5625 99.5625 C-33.28620867 102.73093305 -37.03358102 105.84900661 -40.875 108.875 C-45.24252859 112.32905856 -49.43462036 115.96054054 -53.625 119.625 C-58.60421351 123.9786248 -63.61267981 128.15191415 -69 132 C-73.22803079 128.912625 -76.13992211 125.50964655 -79.25 121.375 C-83.22992495 116.19223239 -87.36489609 111.26807235 -91.79296875 106.45703125 C-95.04941997 102.83170768 -98.09626796 99.04449269 -101.15234375 95.25 C-102.95605161 92.97880251 -102.95605161 92.97880251 -105 91 C-104.5127298 86.27300713 -101.08630627 84.14077835 -97.625 81.3125 C-96.99086182 80.78213135 -96.35672363 80.2517627 -95.70336914 79.70532227 C-93.81047178 78.12659874 -91.90732986 76.56123972 -90 75 C-89.03707031 74.20851563 -88.07414062 73.41703125 -87.08203125 72.6015625 C-85.31794376 71.15798131 -83.5510064 69.71787578 -81.78125 68.28125 C-78.63616307 65.70157196 -75.53516951 63.0737186 -72.4375 60.4375 C-68.69148826 57.25082276 -64.92193789 54.11208863 -61.0625 51.0625 C-56.347804 47.32748109 -51.79588776 43.42043651 -47.24243164 39.49243164 C-43.7016717 36.44316393 -40.12881494 33.4447379 -36.5 30.5 C-32.27207543 27.06792006 -28.12471241 23.55449879 -24 20 C-18.84597289 15.55907779 -13.63616544 11.20414105 -8.35546875 6.9140625 C-5.5493559 4.63380496 -2.77152185 2.32208587 0 0 Z " fill="#ACE6AC" transform="translate(569,1054)"/>
<path d="M0 0 C1.3327188 1.46690559 2.58913869 3.00322501 3.8125 4.5625 C7.60452977 9.30711696 11.50219787 13.92767389 15.5 18.5 C20.79245397 24.56971587 25.95486162 30.72206601 31 37 C31.74121094 37.88429688 32.48242188 38.76859375 33.24609375 39.6796875 C35 42 35 42 35 44 C33.49212839 45.37491299 31.91460239 46.67364462 30.3125 47.9375 C28.7965625 49.14986328 28.7965625 49.14986328 27.25 50.38671875 C26.71375 50.8151709 26.1775 51.24362305 25.625 51.68505859 C22.97996504 53.82540689 20.39913067 56.03975212 17.8125 58.25 C12.95426627 62.38665602 8.0273014 66.4295534 3.0625 70.4375 C-2.75788619 75.13721238 -8.47326433 79.93973975 -14.13256836 84.83178711 C-18.13665474 88.28493141 -22.22934764 91.60150446 -26.37890625 94.87890625 C-30.24313733 98.00599638 -33.99411767 101.26101997 -37.7578125 104.5078125 C-42.1527918 108.29264283 -46.61799235 111.97873379 -51.12890625 115.625 C-53.33527401 117.45013143 -55.50060885 119.29964132 -57.65234375 121.1875 C-58.28011719 121.73599609 -58.90789063 122.28449219 -59.5546875 122.84960938 C-60.78522982 123.92824865 -62.01073721 125.01266639 -63.23046875 126.10351562 C-66.11699533 128.62922638 -68.23435335 130.27198515 -72 131 C-78.06832874 124.50064978 -83.96096103 117.94420557 -89.52734375 111.00390625 C-91.44164886 108.67831284 -93.38472886 106.4080526 -95.37890625 104.15234375 C-95.96687988 103.48565674 -96.55485352 102.81896973 -97.16064453 102.13208008 C-98.32138305 100.82094633 -99.48751217 99.51455978 -100.65966797 98.21362305 C-103.53176621 94.96311524 -105.71930034 92.23678002 -107 88 C-101.11766423 82.60254223 -95.12256529 77.40599785 -88.91796875 72.3828125 C-85.74582277 69.79243894 -82.61965982 67.15306563 -79.5 64.5 C-74.73107822 60.44965425 -69.92087005 56.45647428 -65.0703125 52.50390625 C-53.95730048 43.44100459 -42.92092594 34.29332061 -32 25 C-24.84613463 18.91772316 -17.67296672 12.86848391 -10.3828125 6.94921875 C-8.37444865 5.30631127 -6.40229201 3.63177717 -4.4375 1.9375 C-2 0 -2 0 0 0 Z " fill="#ACE6AC" transform="translate(575,1131)"/>
<path d="M0 0 C4.15388298 1.55891646 6.46918555 4.59719835 9.1875 7.9375 C9.67089844 8.52015625 10.15429688 9.1028125 10.65234375 9.703125 C12.109088 11.46271872 13.55594636 13.22998402 15 15 C15.76957031 15.93972656 16.53914062 16.87945313 17.33203125 17.84765625 C18.77757864 19.61617279 20.22028976 21.38701144 21.66015625 23.16015625 C23.39902519 25.27060319 25.15350079 27.35845139 26.93359375 29.43359375 C27.68189453 30.30757812 27.68189453 30.30757812 28.4453125 31.19921875 C29.41702146 32.33118337 30.39211942 33.46025039 31.37109375 34.5859375 C33.66060243 37.25481245 35.62796876 39.74632591 37 43 C36.36835937 43.51046875 35.73671875 44.0209375 35.0859375 44.546875 C29.65753885 48.95842664 24.29851756 53.43389249 19 58 C14.06691073 62.24773487 9.08680165 66.42446317 4.03515625 70.53125 C-5.54165098 78.32087956 -15.0674353 86.1709924 -24.47045898 94.16967773 C-27.76161683 96.96538136 -31.08561258 99.71500629 -34.4375 102.4375 C-39.29240014 106.38784815 -44.04210081 110.44977948 -48.78198242 114.53637695 C-53.42006685 118.52645125 -58.13078706 122.41332801 -62.890625 126.2578125 C-65.04104478 127.97777519 -65.04104478 127.97777519 -67 130 C-70.21595905 129.86337429 -71.61676439 129.37856201 -73.921875 127.1015625 C-74.52515625 126.28429687 -75.1284375 125.46703125 -75.75 124.625 C-76.43964844 123.71621094 -77.12929688 122.80742188 -77.83984375 121.87109375 C-78.55269531 120.92363281 -79.26554687 119.97617187 -80 119 C-81.42770635 117.22126126 -82.8653647 115.45046805 -84.3125 113.6875 C-85.05628906 112.78 -85.80007813 111.8725 -86.56640625 110.9375 C-90.15109474 106.61055659 -93.78327374 102.32458995 -97.421875 98.04296875 C-99.96447714 95.04192774 -102.48597372 92.02497047 -105 89 C-103.5409782 85.44997371 -101.72582586 83.73986477 -98.6875 81.4375 C-94.55863497 78.2367372 -90.53469312 74.9531956 -86.5625 71.5625 C-82.57368221 68.16737755 -78.56327963 64.80622026 -74.5 61.5 C-69.8946675 57.75147354 -65.35795556 53.92915754 -60.83374023 50.08374023 C-57.44045891 47.2045468 -54.01732214 44.36795763 -50.5625 41.5625 C-46.3160743 38.10725696 -42.14707641 34.57297796 -38 31 C-32.96720142 26.66466871 -27.88104829 22.40862681 -22.72265625 18.22265625 C-20.25442831 16.20770403 -17.80842331 14.16839599 -15.36865234 12.11914062 C-10.35983881 7.91343463 -5.29934517 3.8342321 0 0 Z " fill="#ADE6AD" transform="translate(565,660)"/>
<path d="M0 0 C3.89252812 1.55701125 6.06142977 4.01434106 8.8125 7.125 C9.25480957 7.6214502 9.69711914 8.11790039 10.15283203 8.62939453 C13.13455623 11.98396973 16.07407107 15.37583428 19.015625 18.765625 C22.16890538 22.31616905 25.40831954 25.78738784 28.64990234 29.25732422 C31.89284825 32.74373133 34.98104233 36.31753515 38 40 C36.62647072 43.11836333 35.08161027 45.11865428 32.5859375 47.42578125 C31.90660156 48.05806641 31.22726563 48.69035156 30.52734375 49.34179688 C29.46193359 50.31729492 29.46193359 50.31729492 28.375 51.3125 C27.34439453 52.2705957 27.34439453 52.2705957 26.29296875 53.24804688 C22.18665669 57.050045 18.0120977 60.76591469 13.79052734 64.43920898 C11.5474107 66.39451915 9.33337563 68.38058464 7.125 70.375 C6.28453125 71.13296875 5.4440625 71.8909375 4.578125 72.671875 C3.72734375 73.44015625 2.8765625 74.2084375 2 75 C-7.50111041 83.57979061 -7.50111041 83.57979061 -11.6875 87.1875 C-15.71803726 90.69267191 -19.60341431 94.3477248 -23.5 98 C-32.13233168 106.07832271 -32.13233168 106.07832271 -35.8125 109.375 C-36.39644531 109.89835937 -36.98039062 110.42171875 -37.58203125 110.9609375 C-39 112 -39 112 -41 112 C-41 112.66 -41 113.32 -41 114 C-42.55593001 115.36933879 -44.17297341 116.66944657 -45.8125 117.9375 C-51.2308586 122.24691993 -56.0042757 126.90978047 -60.78515625 131.91015625 C-63 134 -63 134 -65 134 C-66.30863371 132.52931586 -67.5446856 130.99398682 -68.75 129.4375 C-72.6761211 124.5203192 -76.80765682 119.88895241 -81.125 115.3125 C-85.85536271 110.29322669 -90.52515034 105.25049027 -95 100 C-95.57621094 99.3296875 -96.15242188 98.659375 -96.74609375 97.96875 C-98.16691849 96.31494938 -99.5839124 94.65785866 -101 93 C-99.48947977 89.32329416 -97.3511385 87.28125538 -94.375 84.6875 C-93.47265625 83.89472656 -92.5703125 83.10195312 -91.640625 82.28515625 C-90.33351563 81.15400391 -90.33351563 81.15400391 -89 80 C-87.70781336 78.87559728 -86.41610316 77.75064666 -85.125 76.625 C-84.48820312 76.07070312 -83.85140625 75.51640625 -83.1953125 74.9453125 C-79.89756642 72.02311046 -76.66362748 69.03181422 -73.42236328 66.04736328 C-70.0355544 62.93414956 -66.60102456 59.88755462 -63.125 56.875 C-60.38176582 54.45449925 -57.69115432 51.97799358 -55 49.5 C-51.69971077 46.46111982 -48.39050717 43.43843955 -45 40.5 C-40.08656129 36.23761735 -35.32200481 31.81221416 -30.53466797 27.40966797 C-24.43489767 21.8067291 -18.310403 16.23765271 -12.05859375 10.8046875 C-8.00016101 7.24682047 -4.00424976 3.61859456 0 0 Z " fill="#ACE5AD" transform="translate(2060,1001)"/>
<path d="M0 0 C1.98046875 2.125 1.98046875 2.125 4.1875 5 C7.61396952 9.3372329 11.15586231 13.27252327 15.11328125 17.12109375 C17.54428148 19.54202772 19.76542908 22.10728731 21.98828125 24.71875 C23.5941019 26.53971943 25.22930277 28.28908709 26.91796875 30.03125 C27.42610107 30.56266602 27.9342334 31.09408203 28.45776367 31.64160156 C29.47269894 32.70007766 30.49743447 33.74925715 31.5324707 34.78808594 C34.95128471 38.3833357 34.95128471 38.3833357 35.16015625 41.02734375 C33.41967927 43.98674063 30.99834152 46.08298864 28.4375 48.3125 C27.89029297 48.80105469 27.34308594 49.28960938 26.77929688 49.79296875 C25.19406073 51.20455712 23.59928399 52.60436622 22 54 C21.28972656 54.62261719 20.57945312 55.24523438 19.84765625 55.88671875 C18.60877628 56.96844693 17.36786377 58.0478514 16.125 59.125 C13.38176582 61.54550075 10.69115432 64.02200642 8 66.5 C4.09018405 70.10012756 0.14133532 73.64417605 -3.875 77.125 C-6.61823418 79.54550075 -9.30884568 82.02200642 -12 84.5 C-15.90981595 88.10012756 -19.85866468 91.64417605 -23.875 95.125 C-27.15508581 98.01919336 -30.36268057 100.99218892 -33.58032227 103.95532227 C-36.33473428 106.48740116 -39.10742499 108.99035268 -41.9375 111.4375 C-45.55240358 114.56839975 -49.05683071 117.81069976 -52.5625 121.0625 C-65.46171911 133 -65.46171911 133 -68 133 C-69.26953125 131.7421875 -69.26953125 131.7421875 -70.8125 129.875 C-74.26517217 125.80707178 -77.85595493 121.89534065 -81.5 118 C-85.50385107 113.70866689 -89.46562442 109.39688354 -93.30078125 104.953125 C-96.81065876 100.91878303 -100.4147721 96.96732702 -104 93 C-102.66196542 89.99125902 -101.22415624 88.01614357 -98.8046875 85.79296875 C-97.8607312 84.91862183 -97.8607312 84.91862183 -96.89770508 84.02661133 C-96.2302124 83.41970459 -95.56271973 82.81279785 -94.875 82.1875 C-94.19139404 81.55803467 -93.50778809 80.92856934 -92.8034668 80.2800293 C-88.91724758 76.71229952 -84.99564535 73.1904745 -80.99609375 69.75 C-78.41206417 67.48454941 -75.89720677 65.14613057 -73.375 62.8125 C-69.06501855 58.83079387 -64.66598417 54.9782439 -60.1875 51.1875 C-54.35886039 46.24794736 -48.7531961 41.10318878 -43.19091797 35.86669922 C-39.52785705 32.41916907 -35.82382988 29.0445997 -32.01171875 25.76171875 C-29.34373097 23.42528674 -26.73493707 21.02574988 -24.125 18.625 C-20.28168416 15.09205919 -16.43393956 11.56468154 -12.5625 8.0625 C-11.80066406 7.37285156 -11.03882812 6.68320313 -10.25390625 5.97265625 C-3.42970297 0 -3.42970297 0 0 0 Z " fill="#ACE5AD" transform="translate(2063,1252)"/>
<path d="M0 0 C3.36974515 2.73821249 6.51391862 5.35378937 9.3125 8.6875 C11.99736836 11.83466358 14.72443603 14.9322714 17.5 18 C20.7772706 21.63216961 24.02834472 25.28287988 27.22265625 28.98828125 C28.53318824 30.47163065 29.88013646 31.92299528 31.24609375 33.35546875 C31.98988281 34.14566406 32.73367187 34.93585938 33.5 35.75 C34.1909375 36.46671875 34.881875 37.1834375 35.59375 37.921875 C37 40 37 40 37 42.03125 C35.63276282 44.7229982 33.91420223 45.93207663 31.5 47.75 C25.39800295 52.55183297 19.80365352 57.78975895 14.19140625 63.15136719 C9.56479502 67.56273664 4.83053141 71.81375927 0 76 C-1.60818057 77.4330081 -3.21297044 78.86984199 -4.8125 80.3125 C-5.65167969 81.06917969 -6.49085938 81.82585937 -7.35546875 82.60546875 C-10.11728449 85.10619704 -12.87144049 87.61518573 -15.625 90.125 C-18.68131949 92.90812892 -21.74957248 95.66979803 -24.875 98.375 C-28.4857233 101.5102371 -31.9938829 104.74905447 -35.5 108 C-39.6233438 111.82290947 -43.77236826 115.60053903 -48.02734375 119.27734375 C-51.29578568 122.1315673 -54.49518795 125.06249603 -57.703125 127.984375 C-59.73812959 129.77019535 -61.80900749 131.41203295 -64 133 C-68.20404006 131.40226506 -70.76831109 128.27036953 -73.6875 125 C-74.21496826 124.41839111 -74.74243652 123.83678223 -75.28588867 123.23754883 C-76.86268566 121.49650713 -78.43159212 119.74859714 -80 118 C-81.25683594 116.61361328 -81.25683594 116.61361328 -82.5390625 115.19921875 C-89.14469909 107.90123881 -95.60703663 100.48444492 -102 93 C-100.48947977 89.32329416 -98.3511385 87.28125538 -95.375 84.6875 C-94.47523437 83.89730469 -93.57546875 83.10710937 -92.6484375 82.29296875 C-91.33746094 81.15794922 -91.33746094 81.15794922 -90 80 C-88.66635729 78.833687 -87.33299624 77.66705181 -86 76.5 C-85.35546875 75.93796875 -84.7109375 75.3759375 -84.046875 74.796875 C-78.48432707 69.91372224 -73.008141 64.93644 -67.58007812 59.90454102 C-63.24264529 55.89018273 -58.86028609 52.01730805 -54.25 48.3125 C-50.25009042 45.09542987 -46.65253912 41.70649958 -43.0859375 38.0234375 C-40.71434445 35.72290342 -38.20693591 33.68620934 -35.625 31.625 C-30.86432956 27.80592828 -26.59253927 23.6913666 -22.32421875 19.3359375 C-15.38660466 12.36334384 -7.56874482 6.26944363 0 0 Z " fill="#ACE6AD" transform="translate(2061,1335)"/>
<path d="M0 0 C2.90551894 1.54621183 4.65571404 3.65516887 6.81640625 6.12890625 C7.25799072 6.62914307 7.6995752 7.12937988 8.15454102 7.64477539 C9.44612895 9.11123892 10.72528525 10.5886231 12.00390625 12.06640625 C13.14947384 13.3791382 14.2952737 14.69166753 15.44140625 16.00390625 C15.98667969 16.63167969 16.53195312 17.25945312 17.09375 17.90625 C20.00165531 21.19474005 22.98343984 24.41512505 25.95678711 27.64428711 C29.06989924 31.03103244 32.11642707 34.46546874 35.12890625 37.94140625 C37.54940767 40.68464119 40.02594803 43.37521868 42.50390625 46.06640625 C46.15056573 50.02770841 49.74719687 54.02431914 53.27734375 58.08984375 C59.04414993 64.69166259 64.98146567 71.14204073 70.91040039 77.59790039 C74.5836345 81.60044563 78.23247788 85.62380397 81.85546875 89.671875 C83.34154463 91.32817412 84.83698268 92.97610343 86.33984375 94.6171875 C87.44199219 95.82955078 87.44199219 95.82955078 88.56640625 97.06640625 C89.22769531 97.78828125 89.88898438 98.51015625 90.5703125 99.25390625 C92.00390625 101.06640625 92.00390625 101.06640625 92.00390625 103.06640625 C90.55361456 104.35384739 89.03893468 105.56877401 87.50390625 106.75390625 C81.66716253 111.41273015 76.2472646 116.42539522 70.83984375 121.57299805 C64.20878442 127.87467251 57.55103609 133.87775449 50.00390625 139.06640625 C45.42435465 134.5939091 41.02141944 130.041671 36.84375 125.19140625 C33.29499284 121.09262941 29.63735544 117.09002448 26.00390625 113.06640625 C17.42928193 103.57101691 17.42928193 103.57101691 13.69140625 99.25390625 C10.06377629 95.0876027 6.30819377 91.04368528 2.55419922 86.99169922 C-2.01179821 82.06030781 -6.51243138 77.07275422 -10.99609375 72.06640625 C-12.49565994 70.39934925 -13.99566428 68.7326863 -15.49609375 67.06640625 C-16.60597656 65.83277344 -16.60597656 65.83277344 -17.73828125 64.57421875 C-19.26317619 62.88047731 -20.78924777 61.18779456 -22.31640625 59.49609375 C-26.4158051 54.95201435 -30.48633364 50.38808521 -34.48828125 45.7578125 C-35.97960994 44.03560061 -35.97960994 44.03560061 -37.69140625 42.46875 C-38.99609375 41.06640625 -38.99609375 41.06640625 -38.99609375 39.06640625 C-39.65609375 39.06640625 -40.31609375 39.06640625 -40.99609375 39.06640625 C-40.4948108 35.12298041 -39.7990221 33.40536822 -36.68359375 30.94140625 C-33.01388868 27.92394678 -29.48032525 24.79491936 -25.99609375 21.56640625 C-22.04941641 17.93067924 -18.07719244 14.33366663 -14.00390625 10.83984375 C-12.44592181 9.4637252 -10.9272471 8.04304244 -9.42578125 6.60546875 C-8.54148437 5.76757812 -7.6571875 4.9296875 -6.74609375 4.06640625 C-5.9365625 3.28265625 -5.12703125 2.49890625 -4.29296875 1.69140625 C-1.99609375 0.06640625 -1.99609375 0.06640625 0 0 Z " fill="#ACE5AD" transform="translate(831.99609375,1552.93359375)"/>
<path d="M0 0 C1.40234375 1.2578125 1.40234375 1.2578125 2.9375 3.125 C3.55625 3.86105469 4.175 4.59710937 4.8125 5.35546875 C5.534375 6.22816406 6.25625 7.10085938 7 8 C8.80675564 10.15103072 10.61820109 12.29714834 12.4375 14.4375 C12.93137207 15.02208984 13.42524414 15.60667969 13.93408203 16.20898438 C16.97230366 19.76473119 20.10940971 23.18662085 23.3671875 26.54296875 C24.47235718 27.68584351 24.47235718 27.68584351 25.59985352 28.85180664 C27.05814745 30.35000534 28.52721293 31.83780513 30.00756836 33.31420898 C30.67151611 33.99684814 31.33546387 34.6794873 32.01953125 35.3828125 C32.61870361 35.98496582 33.21787598 36.58711914 33.83520508 37.20751953 C35 39 35 39 34.83886719 41.06665039 C33.48645917 44.18356514 30.95000279 46.12512229 28.4375 48.3125 C27.6177771 49.04424438 27.6177771 49.04424438 26.78149414 49.79077148 C25.19540489 51.20294026 23.59975776 52.60335284 22 54 C21.278125 54.63421875 20.55625 55.2684375 19.8125 55.921875 C18.56369511 57.01457928 17.31239122 58.10443422 16.05859375 59.19140625 C13.5104335 61.4301125 11.00589407 63.71410212 8.5 66 C4.7079479 69.45822633 0.88309601 72.86947629 -2.98828125 76.23828125 C-9.64856575 82.07087991 -16.16492261 88.06340992 -22.6809082 94.0559082 C-25.40249494 96.5534312 -28.14418996 99.02055173 -30.9375 101.4375 C-34.52958789 104.54964295 -38.01548282 107.76875835 -41.5 111 C-45.61997273 114.81982674 -49.76222325 118.59834902 -54.01953125 122.265625 C-57.37290798 125.20230995 -60.62997898 128.2466833 -63.8984375 131.27734375 C-66 133 -66 133 -68 133 C-69.3046875 131.70703125 -69.3046875 131.70703125 -70.875 129.8125 C-74.1563391 125.94765918 -77.54805048 122.21143426 -81 118.5 C-84.79834718 114.40494338 -88.54530156 110.27981259 -92.19921875 106.0546875 C-96.06540488 101.64337751 -100.04371973 97.33041542 -104 93 C-102.6737226 90.02674037 -101.26966888 88.05920654 -98.875 85.86328125 C-98.25568604 85.29037354 -97.63637207 84.71746582 -96.99829102 84.12719727 C-96.33885498 83.52834717 -95.67941895 82.92949707 -95 82.3125 C-94.32445068 81.69109131 -93.64890137 81.06968262 -92.95288086 80.42944336 C-90.9744512 78.61307581 -88.98866341 76.80515015 -87 75 C-86.03191406 74.11828125 -85.06382813 73.2365625 -84.06640625 72.328125 C-80.45089806 69.05668233 -76.80512305 65.82347095 -73.125 62.625 C-70.27717207 60.14962442 -67.49255167 57.6144409 -64.72509766 55.04956055 C-60.33942225 50.98629983 -55.91512658 47.05883605 -51.25 43.3125 C-47.19466865 40.04845281 -43.50537955 36.61575897 -39.87890625 32.88671875 C-37.4484139 30.4461204 -34.86709765 28.21868798 -32.2578125 25.97265625 C-29.50553281 23.56798282 -26.81382207 21.09999163 -24.125 18.625 C-20.28181659 15.09191713 -16.43393765 11.56467981 -12.5625 8.0625 C-11.80066406 7.37285156 -11.03882812 6.68320313 -10.25390625 5.97265625 C-3.42970297 0 -3.42970297 0 0 0 Z " fill="#ACE6AD" transform="translate(2063,1085)"/>
<path d="M0 0 C3.59755519 1.49225944 5.58851747 3.51258933 8.125 6.4375 C9.300625 7.77748047 9.300625 7.77748047 10.5 9.14453125 C11.325 10.08683594 12.15 11.02914063 13 12 C14.70444913 13.87853159 16.41277211 15.75355579 18.125 17.625 C21.54615888 21.38405111 24.92717032 25.17188806 28.26171875 29.0078125 C31.48012629 32.69632451 34.74309189 36.34549531 38 40 C36.59321194 43.22548153 34.93721445 45.25616875 32.3671875 47.64453125 C31.64273438 48.32193359 30.91828125 48.99933594 30.171875 49.69726562 C29.03492187 50.74430664 29.03492187 50.74430664 27.875 51.8125 C27.14023438 52.49892578 26.40546875 53.18535156 25.6484375 53.89257812 C21.4253277 57.82200335 17.13536486 61.66398977 12.78173828 65.44799805 C10.49661225 67.43848122 8.24645508 69.46604743 6 71.5 C3.06321535 74.15113994 0.11397458 76.78290171 -2.875 79.375 C-6.84252724 82.82851561 -10.7084764 86.3900394 -14.57763672 89.95263672 C-17.9644456 93.06585044 -21.39897544 96.11244538 -24.875 99.125 C-27.61823418 101.54550075 -30.30884568 104.02200642 -33 106.5 C-36.30028923 109.53888018 -39.60949283 112.56156045 -43 115.5 C-46.48991864 118.52704522 -49.90638662 121.62942906 -53.3125 124.75 C-53.82876953 125.22244141 -54.34503906 125.69488281 -54.87695312 126.18164062 C-56.88009295 128.02158115 -58.8604571 129.85193299 -60.7265625 131.83203125 C-62 133 -62 133 -64.0625 132.9375 C-66.53848865 131.73944098 -67.02617818 130.51570636 -68 128 C-68.66 128 -69.32 128 -70 128 C-71.33984375 126.671875 -71.33984375 126.671875 -72.9375 124.75 C-76.04568582 121.0902572 -79.24255333 117.52677187 -82.5 114 C-88.82326652 107.1310328 -94.93680287 100.09837713 -101 93 C-99.48947977 89.32329416 -97.3511385 87.28125538 -94.375 84.6875 C-93.47523437 83.89730469 -92.57546875 83.10710937 -91.6484375 82.29296875 C-90.33746094 81.15794922 -90.33746094 81.15794922 -89 80 C-87.66635729 78.833687 -86.33299624 77.66705181 -85 76.5 C-84.360625 75.943125 -83.72125 75.38625 -83.0625 74.8125 C-79.82348414 71.96609213 -76.63036144 69.06904969 -73.4296875 66.1796875 C-71.3439382 64.30854906 -69.24182372 62.46075169 -67.125 60.625 C-63.15747276 57.17148439 -59.2915236 53.6099606 -55.42236328 50.04736328 C-52.02804744 46.92724904 -48.58600636 43.87388617 -45.1015625 40.85546875 C-42.48837303 38.54828474 -39.93386242 36.17943737 -37.375 33.8125 C-32.94691214 29.71838002 -28.41655862 25.76969071 -23.8125 21.875 C-18.99671409 17.79557679 -14.4469388 13.57478417 -10.04296875 9.046875 C-6.85284725 5.85065384 -3.4436233 2.91816579 0 0 Z " fill="#ACE5AD" transform="translate(2060,1168)"/>
<path d="M0 0 C3.43729527 1.24854997 5.50293403 4.12789647 7.86450195 6.80786133 C8.39857666 7.40058838 8.93265137 7.99331543 9.48291016 8.60400391 C11.01543607 10.30962824 12.53603539 12.02501846 14.05200195 13.74536133 C14.71973633 14.50075195 15.3874707 15.25614258 16.07543945 16.03442383 C17.17407771 17.28779986 18.26920975 18.544259 19.3605957 19.80395508 C24.69127601 25.92254194 30.18451086 31.89732419 35.67700195 37.87036133 C39.23448049 41.73908884 42.7348965 45.64870119 46.17700195 49.62036133 C49.07119531 52.90044713 52.04419087 56.1080419 55.00732422 59.32568359 C57.53940312 62.08009561 60.04235464 64.85278632 62.48950195 67.68286133 C65.52658364 71.18384093 68.65477789 74.59373582 71.80200195 77.99536133 C72.31230957 78.54691895 72.82261719 79.09847656 73.34838867 79.66674805 C74.91590871 81.3599446 76.48393719 83.05266925 78.05200195 84.74536133 C80.07566774 86.93026534 82.09627741 89.11793098 84.11450195 91.30786133 C84.99235352 92.25790039 85.87020508 93.20793945 86.7746582 94.18676758 C92.05200195 100.11585876 92.05200195 100.11585876 92.05200195 102.74536133 C90.65356445 104.15551758 90.65356445 104.15551758 88.67700195 105.80786133 C85.42259128 108.57353542 82.21786362 111.37844325 79.05200195 114.24536133 C76.13711266 116.87716577 73.20926985 119.48823058 70.23950195 122.05786133 C67.70014637 124.25898307 65.22101664 126.51255614 62.77075195 128.81176758 C61.89833862 129.62810669 61.89833862 129.62810669 61.00830078 130.4609375 C59.84535103 131.55197538 58.68620705 132.64708669 57.53125 133.74658203 C55.05448999 136.06842817 53.31282282 137.65842104 50.05200195 138.74536133 C35.9339324 123.71427044 35.9339324 123.71427044 30.75512695 117.69848633 C28.55834291 115.17923857 26.30510576 112.71433137 24.05200195 110.24536133 C20.59624782 106.45602007 17.18677306 102.63452435 13.8215332 98.76489258 C9.57369312 93.91691615 5.23580896 89.1471527 0.8996582 84.37817383 C-2.83177635 80.26212486 -6.50279686 76.10755976 -10.0925293 71.86791992 C-15.74145938 65.19987217 -21.58674451 58.76024583 -27.60864258 52.42651367 C-29.39815082 50.54166876 -31.17489195 48.64563593 -32.94799805 46.74536133 C-33.60977051 46.04765625 -34.27154297 45.34995117 -34.95336914 44.63110352 C-35.91557373 43.5855127 -35.91557373 43.5855127 -36.8972168 42.51879883 C-37.77446411 41.57786377 -37.77446411 41.57786377 -38.66943359 40.61791992 C-39.94799805 38.74536133 -39.94799805 38.74536133 -39.94799805 34.74536133 C-38.26049805 32.63208008 -38.26049805 32.63208008 -35.94799805 30.43286133 C-35.11913086 29.64008789 -34.29026367 28.84731445 -33.4362793 28.03051758 C-30.71989239 25.53587654 -27.97268918 23.08914495 -25.17456055 20.68676758 C-22.40867095 18.27510594 -19.71011004 15.79297665 -17.01049805 13.30786133 C-16.4983374 12.83977051 -15.98617676 12.37167969 -15.45849609 11.8894043 C-13.05400698 9.69142869 -10.67133489 7.48020867 -8.3190918 5.22583008 C-7.53663086 4.48977539 -6.75416992 3.7537207 -5.94799805 2.99536133 C-5.26737305 2.34051758 -4.58674805 1.68567383 -3.88549805 1.01098633 C-1.94799805 -0.25463867 -1.94799805 -0.25463867 0 0 Z " fill="#ACE5AD" transform="translate(912.947998046875,1553.254638671875)"/>
<path d="M0 0 C2.015625 2.16015625 2.015625 2.16015625 4.25 5.0625 C7.42715075 9.08277814 10.65149216 12.77736168 14.328125 16.3359375 C16.73005803 18.72664654 18.91854314 21.28402439 21.1328125 23.84765625 C26.51045419 30.04656958 32.07070855 36.08467245 37.625 42.125 C41.2032357 46.01678296 44.72831363 49.94680781 48.19140625 53.94140625 C50.4301125 56.4895665 52.71410212 58.99410593 55 61.5 C57.84524228 64.61907011 60.6719958 67.74755391 63.4375 70.9375 C66.30464294 74.2333746 69.23544324 77.4677818 72.1875 80.6875 C72.64535889 81.18950928 73.10321777 81.69151855 73.57495117 82.20874023 C76.1471085 85.01951033 78.75381705 87.78804808 81.41015625 90.51953125 C81.96743408 91.10065674 82.52471191 91.68178223 83.09887695 92.28051758 C84.18224902 93.40874313 85.27559904 94.52748883 86.37963867 95.63549805 C89.96765001 99.39873647 89.96765001 99.39873647 90.11328125 102.10546875 C88.58682173 104.70312793 86.72225385 106.34865814 84.4375 108.3125 C83.52484375 109.1065625 82.6121875 109.900625 81.671875 110.71875 C80.79015625 111.4715625 79.9084375 112.224375 79 113 C77.72746034 114.10219971 76.45648291 115.2062072 75.1875 116.3125 C74.55199219 116.86550781 73.91648437 117.41851563 73.26171875 117.98828125 C69.7289257 121.13057559 66.27310931 124.3554769 62.80664062 127.57055664 C58.6056551 131.45992382 54.34518448 135.27180546 50 139 C46.86664562 137.63678738 45.04593976 136.18617343 42.875 133.5625 C39.9826969 130.14263089 37.02404616 126.80439086 34 123.5 C30.56735239 119.73649479 27.1844499 115.93870649 23.84375 112.09375 C21.59123543 109.53580973 19.29682908 107.0182102 17 104.5 C13.56419283 100.73303069 10.17701831 96.93290138 6.8359375 93.08203125 C4.63367021 90.58456643 2.37859965 88.138723 0.125 85.6875 C-3.25628885 81.98857493 -6.48659015 78.21927916 -9.625 74.3125 C-12.91290247 70.23735328 -16.36653151 66.5226968 -20.1171875 62.875 C-22.52644212 60.47574229 -24.72224929 57.92841324 -26.93359375 55.34765625 C-28.60579761 53.44785564 -30.30420089 51.59163273 -32.03515625 49.74609375 C-32.57430664 49.17012451 -33.11345703 48.59415527 -33.66894531 48.00073242 C-34.74657403 46.85283053 -35.82783848 45.70832864 -36.91308594 44.56762695 C-39.43298075 41.87813947 -41.61920106 39.44781311 -43 36 C-38.90041959 31.78511889 -34.68658769 27.78882078 -30.234375 23.94921875 C-27.62148624 21.66979306 -25.06069979 19.33787647 -22.5 17 C-18.04797988 12.94207294 -13.55797475 8.93825011 -9 5 C-8.4328125 4.49210937 -7.865625 3.98421875 -7.28125 3.4609375 C-3.33694134 0 -3.33694134 0 0 0 Z " fill="#ACE5AD" transform="translate(1490,1553)"/>
<path d="M0 0 C3.11836333 1.37352928 5.11865428 2.91838973 7.42578125 5.4140625 C8.05806641 6.09339844 8.69035156 6.77273438 9.34179688 7.47265625 C9.99212891 8.18292969 10.64246094 8.89320312 11.3125 9.625 C11.95123047 10.31207031 12.58996094 10.99914063 13.24804688 11.70703125 C17.050045 15.81334331 20.76591469 19.9879023 24.43920898 24.20947266 C26.39451915 26.4525893 28.38058464 28.66662437 30.375 30.875 C33.37951464 34.20432704 36.37970059 37.53738066 39.375 40.875 C42.76777191 44.64738275 46.19038876 48.39081108 49.625 52.125 C53.18253099 55.99367822 56.68289575 59.90334125 60.125 63.875 C62.54550075 66.61823418 65.02200642 69.30884568 67.5 72 C71.09526067 75.9045304 74.64080778 79.84225136 78.10546875 83.86328125 C79.64453127 85.59908991 81.20854474 87.29410468 82.80078125 88.98046875 C83.54521484 89.77420898 83.54521484 89.77420898 84.3046875 90.58398438 C85.28702282 91.62866999 86.27505531 92.66803669 87.26953125 93.70117188 C90.00942838 96.62398828 91.78876376 99.17025303 93 103 C85.70296928 109.70775161 78.37675028 116.37983949 71 123 C70.154375 123.763125 69.30875 124.52625 68.4375 125.3125 C63.33088368 129.92090985 58.19282943 134.48891075 53 139 C49.8376284 137.62803835 48.0063782 136.1434878 45.8125 133.5 C43.1288248 130.32994443 40.41015409 127.20665391 37.625 124.125 C36.86445312 123.28195312 36.10390625 122.43890625 35.3203125 121.5703125 C34.55460937 120.72210937 33.78890625 119.87390625 33 119 C31.49971321 117.33359149 29.99971128 115.66692647 28.5 114 C27.7575 113.175 27.015 112.35 26.25 111.5 C19.5 104 19.5 104 17.2578125 101.5078125 C15.73291756 99.81407106 14.20684598 98.12138831 12.6796875 96.4296875 C7.19417352 90.34913472 1.7398133 84.24984009 -3.5390625 77.98828125 C-9.9053527 70.45029469 -16.49261321 63.17645875 -23.30444336 56.03735352 C-27.14046887 52.01148808 -30.86924937 47.92006998 -34.50097656 43.70849609 C-36.2495403 41.71558909 -38.08763635 39.83586911 -40 38 C-38.69983484 35.10368126 -37.36489577 33.14805694 -35.0234375 31.01171875 C-34.14727783 30.20516846 -34.14727783 30.20516846 -33.25341797 29.38232422 C-32.63354004 28.82303223 -32.01366211 28.26374023 -31.375 27.6875 C-30.73836426 27.10500488 -30.10172852 26.52250977 -29.44580078 25.92236328 C-25.69833852 22.50367608 -21.9135259 19.1311327 -18.0703125 15.8203125 C-14.7276226 12.88126817 -11.46932989 9.84936396 -8.21044922 6.81787109 C-5.57550947 4.38166315 -2.92120105 2.08657218 0 0 Z " fill="#ACE5AD" transform="translate(1893,1553)"/>
<path d="M0 0 C2.35145613 1.07481727 3.39393218 2.19893828 5.01953125 4.20703125 C8.03424708 7.81565255 11.14129925 11.3164416 14.33203125 14.76953125 C20.42529886 21.39237627 26.48657485 28.0427014 32.39453125 34.83203125 C36.05002895 39.03034067 39.80687582 43.13385038 43.55859375 47.24609375 C45.50940268 49.40024432 47.43096737 51.57171594 49.33203125 53.76953125 C52.9803484 57.97114768 56.77082149 62.037221 60.55419922 66.11669922 C63.78364466 69.60506669 66.94194611 73.1417857 70.05078125 76.73828125 C72.63990929 79.66696707 75.29997622 82.52754812 77.95703125 85.39453125 C78.99232643 86.51810117 80.02748561 87.64179641 81.0625 88.765625 C82.79922015 90.64995785 84.54946442 92.51438281 86.3203125 94.3671875 C87.28517578 95.40166016 87.28517578 95.40166016 88.26953125 96.45703125 C88.82253906 97.03582031 89.37554688 97.61460938 89.9453125 98.2109375 C90.95703125 99.89453125 90.95703125 99.89453125 90.70019531 101.81298828 C89.84953389 104.19562274 88.94428442 105.19694738 87.078125 106.8828125 C86.49063477 107.42067383 85.90314453 107.95853516 85.29785156 108.51269531 C84.66975586 109.07182617 84.04166016 109.63095703 83.39453125 110.20703125 C82.75483398 110.78807617 82.11513672 111.36912109 81.45605469 111.96777344 C77.63549012 115.42779766 73.78484759 118.85530051 69.87890625 122.21875 C67.53685382 124.26090547 65.2510629 126.36112052 62.95703125 128.45703125 C58.80482926 132.21072469 54.51473443 135.64812256 49.95703125 138.89453125 C45.03698675 134.07489582 40.25139841 129.20854142 35.76171875 123.984375 C33.73231187 121.63430426 31.66137785 119.32551944 29.58203125 117.01953125 C28.82148437 116.17519531 28.0609375 115.33085938 27.27734375 114.4609375 C25.75538038 112.77755377 24.22946499 111.0977329 22.69921875 109.421875 C18.77844671 105.111758 14.98900962 100.74416373 11.33203125 96.20703125 C8.27284144 92.42553273 5.11676048 88.9345838 1.625 85.5546875 C-0.74850731 83.19229732 -2.90762585 80.66382773 -5.09375 78.12890625 C-7.37317569 75.51601749 -9.70509228 72.95523104 -12.04296875 70.39453125 C-14.88821103 67.27546114 -17.71496455 64.14697734 -20.48046875 60.95703125 C-23.94960662 56.95926285 -27.53412859 53.07117653 -31.13647461 49.19360352 C-33.24913327 46.90745803 -35.26740688 44.6079536 -37.1875 42.15625 C-39.01842467 39.70039773 -39.01842467 39.70039773 -42.04296875 37.89453125 C-40.47965218 33.90249073 -37.68253062 31.47838499 -34.54296875 28.70703125 C-33.74101074 27.98628418 -33.74101074 27.98628418 -32.92285156 27.25097656 C-31.82647967 26.26651919 -30.72784364 25.28457749 -29.62695312 24.30517578 C-27.33651424 22.26538604 -25.06670751 20.20290035 -22.79296875 18.14453125 C-19.21745432 14.93456462 -15.62720166 11.74348514 -11.98828125 8.60546875 C-10.60423118 7.3881717 -9.24733496 6.1396992 -7.91015625 4.87109375 C-7.21148438 4.21882813 -6.5128125 3.5665625 -5.79296875 2.89453125 C-5.1690625 2.29640625 -4.54515625 1.69828125 -3.90234375 1.08203125 C-2.04296875 -0.10546875 -2.04296875 -0.10546875 0 0 Z " fill="#ACE5AD" transform="translate(1078.04296875,1553.10546875)"/>
<path d="M0 0 C3.01671523 1.16415197 4.95593114 2.73898997 7.13671875 5.08984375 C7.70938477 5.70384033 8.28205078 6.31783691 8.87207031 6.95043945 C9.47116211 7.60616943 10.07025391 8.26189941 10.6875 8.9375 C11.31108398 9.61192139 11.93466797 10.28634277 12.57714844 10.98120117 C16.86923213 15.66019412 20.89103452 20.48361016 24.8515625 25.4453125 C27.91023823 29.082356 31.28032455 32.35966624 34.671875 35.68359375 C38.9132323 39.90360194 42.71474749 44.47644839 46.5703125 49.046875 C52.73971309 56.33061897 59.08230486 63.39979475 65.66015625 70.31835938 C69.30351735 74.15576906 72.83329262 78.06668819 76.30151367 82.06298828 C79.39230079 85.58782729 82.60781481 88.99696731 85.8125 92.41796875 C91.55163734 98.58606223 91.55163734 98.58606223 93 101 C91.90303373 104.2908988 91.15198144 104.96796717 88.5625 107.125 C85.32723567 109.86831895 82.14411801 112.65231352 79 115.5 C76.08511071 118.13180445 73.15726789 120.74286926 70.1875 123.3125 C64.33534958 128.40447418 58.6845171 133.72275775 53 139 C49.76353894 137.92117965 49.21031642 137.34621347 47.125 134.8125 C43.69560469 130.7628949 40.12435166 126.87396974 36.5 123 C32.47969087 118.69106783 28.50279858 114.3608228 24.65234375 109.8984375 C22.73552575 107.69613597 20.77489305 105.53678058 18.8125 103.375 C14.67555123 98.79630924 10.67164695 94.11537393 6.67993164 89.41064453 C2.48533437 84.49672444 -1.87440095 79.75252204 -6.34301758 75.08666992 C-10 71.2135233 -10 71.2135233 -10 69 C-10.66 69 -11.32 69 -12 69 C-13.33984375 67.671875 -13.33984375 67.671875 -14.9375 65.75 C-17.98992134 62.15928859 -21.11833676 58.65212773 -24.3125 55.1875 C-25.25273104 54.16548129 -26.19283396 53.1433447 -27.1328125 52.12109375 C-27.60364258 51.6091748 -28.07447266 51.09725586 -28.55957031 50.56982422 C-32.3899599 46.39534878 -36.19267203 42.19549373 -40 38 C-36.95820309 31.22240398 -30.67753099 26.63850753 -25.15625 21.87109375 C-20.02208987 17.4159077 -14.99552111 12.83532802 -9.98828125 8.23828125 C-9.48981689 7.78171143 -8.99135254 7.3251416 -8.4777832 6.85473633 C-7.06682278 5.56125881 -5.65834856 4.26507084 -4.25 2.96875 C-2 1 -2 1 0 0 Z " fill="#ACE5AD" transform="translate(993,1553)"/>
<path d="M0 0 C4.25583358 1.60482507 6.8588323 4.82165375 9.8125 8.125 C10.34875 8.71539063 10.885 9.30578125 11.4375 9.9140625 C14.70846867 13.52559207 17.92765919 17.18019635 21.11328125 20.8671875 C23.58885463 23.66566175 26.14109737 26.39123124 28.6875 29.125 C32.86547188 33.61622188 36.9140414 38.1915858 40.875 42.875 C45.79437457 48.68687802 50.92072332 54.27299297 56.14013672 59.81591797 C58.98115641 62.83405662 61.79795358 65.85555304 64.5 69 C67.8866604 72.93958454 71.44693379 76.71122896 75 80.5 C81.23105479 87.14874267 87.3857258 93.81372902 93 101 C91.62803835 104.1623716 90.1434878 105.9936218 87.5 108.1875 C84.32994443 110.8711752 81.20665391 113.58984591 78.125 116.375 C77.28066406 117.13554688 76.43632813 117.89609375 75.56640625 118.6796875 C73.88302252 120.20165087 72.20320165 121.72756626 70.52734375 123.2578125 C64.51644133 128.72573325 58.332011 133.9079075 52 139 C48.33852819 136.25389614 45.55912981 133.41754992 42.75 129.8125 C39.82755433 126.15944292 36.85716517 122.75738928 33.5 119.5 C30.40165226 116.48136961 27.62645349 113.38797935 24.9375 110 C20.87353309 104.91468464 16.49152427 100.209891 12 95.5 C6.6920434 89.93350719 1.66568022 84.30722672 -3.12109375 78.28515625 C-5.36592063 75.5549614 -7.79910684 73.11199475 -10.3359375 70.65625 C-12.6861758 68.31704569 -14.82009049 65.8111563 -16.984375 63.30078125 C-19.44480101 60.49227172 -21.9696824 57.74531751 -24.5 55 C-28.2517247 50.92775695 -31.95144331 46.81894715 -35.5625 42.62109375 C-36.98550816 41.0163427 -38.46784521 39.5002349 -40 38 C-38.59321194 34.77451847 -36.93721445 32.74383125 -34.3671875 30.35546875 C-33.64273437 29.67806641 -32.91828125 29.00066406 -32.171875 28.30273438 C-31.41390625 27.60470703 -30.6559375 26.90667969 -29.875 26.1875 C-29.14023438 25.50107422 -28.40546875 24.81464844 -27.6484375 24.10742188 C-23.43282116 20.18496899 -19.1499467 16.35085563 -14.80371094 12.57397461 C-11.5560272 9.73994415 -8.38371769 6.82251174 -5.19921875 3.91796875 C-3 2 -3 2 0 0 Z " fill="#ACE5AD" transform="translate(1812,1553)"/>
<path d="M0 0 C2.89631874 1.30016516 4.85194306 2.63510423 6.98828125 4.9765625 C7.79471069 5.85260132 7.79471069 5.85260132 8.61743164 6.74633789 C9.1768042 7.36629639 9.73617676 7.98625488 10.3125 8.625 C11.18733032 9.58104126 11.18733032 9.58104126 12.07983398 10.55639648 C15.48453846 14.28821123 18.83638563 18.06226325 22.13671875 21.88671875 C24.66967052 24.75952149 27.27225891 27.56547462 29.875 30.375 C36.41436143 37.44005304 42.91416335 44.52428703 49.13793945 51.87084961 C54.79112315 58.53939744 60.63653354 64.98278799 66.66064453 71.31884766 C70.31379816 75.16662431 73.85516198 79.08712922 77.33276367 83.09423828 C80.20993603 86.38303714 83.19106748 89.57511382 86.16796875 92.7734375 C88.60829356 95.41424225 90.90924986 98.07294981 93 101 C91.62803835 104.1623716 90.1434878 105.9936218 87.5 108.1875 C84.32994443 110.8711752 81.20665391 113.58984591 78.125 116.375 C77.28195312 117.13554688 76.43890625 117.89609375 75.5703125 118.6796875 C74.72210937 119.44539063 73.87390625 120.21109375 73 121 C70.51195886 123.24001212 68.02320282 125.47918354 65.53125 127.71484375 C63.75117639 129.32185465 61.98120703 130.94009407 60.21875 132.56640625 C59.3215625 133.39011719 58.424375 134.21382812 57.5 135.0625 C56.6853125 135.81660156 55.870625 136.57070312 55.03125 137.34765625 C53 139 53 139 51 139 C49.6953125 137.70703125 49.6953125 137.70703125 48.125 135.8125 C44.8436609 131.94765918 41.45194952 128.21143426 38 124.5 C34.19221529 120.39476863 30.43684319 116.25869189 26.7734375 112.0234375 C24.54861908 109.48498829 22.27496681 106.99358224 20 104.5 C16.54424587 100.71065874 13.1347711 96.88916302 9.76953125 93.01953125 C6.22421912 88.97333617 2.60477095 84.99316378 -1 81 C-2.50028679 79.33359149 -4.00028872 77.66692647 -5.5 76 C-6.61761719 74.75863281 -6.61761719 74.75863281 -7.7578125 73.4921875 C-9.23292618 71.85260121 -10.70691652 70.21200345 -12.1796875 68.5703125 C-16.76536308 63.46242475 -21.38927204 58.39221727 -26.03662109 53.34057617 C-29.27084341 49.81686746 -32.44347589 46.24695928 -35.5625 42.62109375 C-36.98550816 41.0163427 -38.46784521 39.5002349 -40 38 C-38.59321194 34.77451847 -36.93721445 32.74383125 -34.3671875 30.35546875 C-33.64273437 29.67806641 -32.91828125 29.00066406 -32.171875 28.30273438 C-31.41390625 27.60470703 -30.6559375 26.90667969 -29.875 26.1875 C-29.14023438 25.50107422 -28.40546875 24.81464844 -27.6484375 24.10742188 C-23.43282116 20.18496899 -19.1499467 16.35085563 -14.80371094 12.57397461 C-11.5560272 9.73994415 -8.38371769 6.82251174 -5.19921875 3.91796875 C-3 2 -3 2 0 0 Z " fill="#ACE5AD" transform="translate(1160,1553)"/>
<path d="M0 0 C3.00874098 1.33803458 4.98385643 2.77584376 7.20703125 5.1953125 C7.78976807 5.82445557 8.37250488 6.45359863 8.97290039 7.10180664 C9.57996826 7.76946045 10.18703613 8.43711426 10.8125 9.125 C11.44341553 9.81005615 12.07433105 10.4951123 12.72436523 11.20092773 C16.24221218 15.03224168 19.70620217 18.9039043 23.09765625 22.84765625 C25.84123061 25.95178248 28.67379155 28.97118461 31.5 32 C35.4918575 36.27931616 39.43790585 40.5806502 43.26171875 45.01171875 C45.47256489 47.54052928 47.73596443 50.01872564 50 52.5 C52.84524228 55.61907011 55.6719958 58.74755391 58.4375 61.9375 C61.86768576 65.88667367 65.41003518 69.73022305 68.95288086 73.57788086 C71.50540453 76.3547637 74.02975746 79.14972015 76.5 82 C79.54580759 85.51268321 82.67072286 88.94834669 85.8125 92.375 C86.29332031 92.89964844 86.77414062 93.42429687 87.26953125 93.96484375 C89.14940398 96.01027346 91.03536649 98.03536649 93 100 C92.95131847 103.19211738 91.78018403 104.22966372 89.55859375 106.55078125 C88.52609315 107.48016571 87.48523501 108.40032441 86.4375 109.3125 C85.89029297 109.80105469 85.34308594 110.28960938 84.77929688 110.79296875 C83.19406073 112.20455712 81.59928399 113.60436622 80 115 C79.28972656 115.62261719 78.57945313 116.24523438 77.84765625 116.88671875 C76.61016001 117.96723872 75.37055287 119.04534563 74.12890625 120.12109375 C71.36250483 122.56263335 68.65124594 125.06286536 65.9375 127.5625 C53.48743628 139 53.48743628 139 51 139 C49.625 137.63671875 49.625 137.63671875 48 135.6875 C45.06250578 132.22982451 42.06275384 128.84755259 39 125.5 C35.56735239 121.73649479 32.1844499 117.93870649 28.84375 114.09375 C26.59123543 111.53580973 24.29682908 109.0182102 22 106.5 C18.54671847 102.71337002 15.13900949 98.8952368 11.77734375 95.02734375 C8.9432438 91.79460117 6.05314714 88.61254549 3.171875 85.421875 C1.34255696 83.38198798 -0.45965658 81.32396218 -2.25 79.25 C-5.53122461 75.47277633 -8.95268967 71.83607474 -12.375 68.1875 C-16.27052759 64.03204983 -20.01656038 59.83810434 -23.5625 55.375 C-28.56890278 49.10765622 -34.24987019 43.57499895 -40 38 C-38.40226506 33.79595994 -35.27036953 31.23168891 -32 28.3125 C-31.41839111 27.78503174 -30.83678223 27.25756348 -30.23754883 26.71411133 C-28.49650713 25.13731434 -26.74859714 23.56840788 -25 22 C-24.07574219 21.16210938 -23.15148438 20.32421875 -22.19921875 19.4609375 C-14.90123881 12.85530091 -7.48444492 6.39296337 0 0 Z " fill="#ACE5AD" transform="translate(1241,1553)"/>
<path d="M0 0 C3.89252812 1.55701125 6.06142977 4.01434106 8.8125 7.125 C9.25408447 7.6207251 9.69566895 8.1164502 10.15063477 8.62719727 C13.15594861 12.00879062 16.12318181 15.42432516 19.08984375 18.83984375 C21.99774906 22.1283338 24.97953359 25.3487188 27.95288086 28.57788086 C30.50540453 31.3547637 33.02975746 34.14972015 35.5 37 C38.40085562 40.34500576 41.37824395 43.6160534 44.375 46.875 C50.4466241 53.47783933 56.49348494 60.10150162 62.375 66.875 C65.35916686 70.30332192 68.42188484 73.65620801 71.5 77 C75.13223452 80.94573825 78.71703317 84.9245711 82.23046875 88.9765625 C85.77250742 93.02684072 89.39252094 97.00805038 93 101 C91.72852174 104.81443478 90.02754257 105.79325021 86.875 108.25 C82.88698483 111.43012049 79.20688507 114.66776803 75.6640625 118.328125 C73.28282044 120.7205466 70.73798774 122.90162338 68.1796875 125.1015625 C64.85712654 127.99540592 61.63040905 130.9941939 58.39453125 133.984375 C56.04415595 135.96283121 53.67475926 137.49871416 51 139 C36.81932476 123.90225468 36.81932476 123.90225468 31.6953125 117.94140625 C29.54844949 115.48290184 27.33462868 113.089711 25.125 110.6875 C21.74371115 106.98857493 18.51340985 103.21927916 15.375 99.3125 C12.09064238 95.24174689 8.64146769 91.53018949 4.89453125 87.88671875 C2.40498825 85.40744191 0.12483647 82.77746263 -2.16796875 80.1171875 C-7.52686501 73.92417732 -13.08214753 67.90305344 -18.625 61.875 C-22.82124513 57.30991753 -26.9355754 52.68251682 -31 48 C-32.43376289 46.35091008 -33.87133159 44.70512206 -35.3125 43.0625 C-35.96863281 42.31097656 -36.62476563 41.55945312 -37.30078125 40.78515625 C-38.88954848 38.91375803 -38.88954848 38.91375803 -41 38 C-39.90303373 34.7091012 -39.15198144 34.03203283 -36.5625 31.875 C-33.41929775 29.20634871 -30.31276544 26.51094203 -27.25 23.75 C-26.40953125 22.99332031 -25.5690625 22.23664063 -24.703125 21.45703125 C-22.8080536 19.73448802 -20.92271443 18.00487983 -19.046875 16.26171875 C-12.90059946 10.55883616 -6.64334319 5.12948401 0 0 Z " fill="#ACE5AD" transform="translate(1731,1553)"/>
<path d="M0 0 C2.015625 2.16015625 2.015625 2.16015625 4.25 5.0625 C7.42953596 9.08579631 10.65684476 12.78225383 14.3359375 16.34375 C16.6861758 18.68295431 18.82009049 21.1888437 20.984375 23.69921875 C23.44480349 26.50773111 25.96978578 29.25458494 28.5 32 C32.14685888 35.96111602 35.7432949 39.95791782 39.2734375 44.0234375 C45.08668908 50.67842686 51.07476053 57.17726477 57.0559082 63.6809082 C59.5534312 66.40249494 62.02055173 69.14418996 64.4375 71.9375 C67.54964809 75.52959382 70.76887094 79.01537139 74 82.5 C85.54893215 94.96398218 85.54893215 94.96398218 90 101 C88.44298875 104.89252812 85.98565894 107.06142977 82.875 109.8125 C82.3807251 110.25263428 81.8864502 110.69276855 81.37719727 111.14624023 C79.92395396 112.43741004 78.46212671 113.7188985 77 115 C75.93458984 115.93585938 75.93458984 115.93585938 74.84765625 116.890625 C73.57477032 118.00472557 72.3000288 119.11670966 71.0234375 120.2265625 C67.83389603 123.02202935 64.69173484 125.86972531 61.54296875 128.7109375 C57.71198914 132.15940762 53.85709102 135.58079129 50 139 C40.92765228 131.78335976 33.38703905 122.82796372 25.83203125 114.078125 C23.94020127 111.9321686 22.00301213 109.83170987 20.05810547 107.73388672 C16.1611714 103.52891561 12.38233341 99.30380093 8.8125 94.8125 C3.50778615 88.21745034 -2.35835016 82.16460564 -8.18359375 76.03125 C-13.7285225 70.19191226 -19.09087283 64.20112749 -24.375 58.125 C-27.42913703 54.62025258 -30.54907261 51.17911865 -33.6875 47.75 C-34.38335205 46.98840576 -34.38335205 46.98840576 -35.09326172 46.21142578 C-37.66685466 43.40799811 -40.28688498 40.66863773 -43 38 C-41.69620125 35.0981478 -40.34704861 33.1254234 -38.015625 30.96875 C-37.1177124 30.1327124 -37.1177124 30.1327124 -36.20166016 29.27978516 C-35.23558838 28.3987915 -35.23558838 28.3987915 -34.25 27.5 C-33.58403809 26.88560059 -32.91807617 26.27120117 -32.23193359 25.63818359 C-26.65938413 20.52880707 -20.95173541 15.58800412 -15.17578125 10.7109375 C-11.60770428 7.69105565 -8.17405848 4.53085425 -4.76953125 1.328125 C-3 0 -3 0 0 0 Z " fill="#ACE5AD" transform="translate(1650,1553)"/>
<path d="M0 0 C4.25582033 1.60482008 6.85886167 4.82163155 9.8125 8.125 C10.3480249 8.71466553 10.8835498 9.30433105 11.43530273 9.91186523 C14.72327829 13.54253541 17.96295627 17.2138789 21.16796875 20.91796875 C23.53249977 23.60516498 25.95216715 26.24051549 28.375 28.875 C34.46659126 35.49946239 40.52948443 42.14810215 46.4375 48.9375 C50.0929977 53.13580942 53.84984457 57.23931913 57.6015625 61.3515625 C59.55237143 63.50571307 61.47393612 65.67718469 63.375 67.875 C66.41570569 71.37145548 69.54256167 74.78499343 72.6875 78.1875 C73.44788574 79.01193604 73.44788574 79.01193604 74.22363281 79.85302734 C76.92004869 82.77119349 79.63297994 85.67168269 82.37109375 88.55078125 C82.91612549 89.12868408 83.46115723 89.70658691 84.02270508 90.30200195 C85.0648365 91.40637862 86.11258142 92.50549415 87.16674805 93.59838867 C89.94337398 96.55265819 91.78614165 99.11565327 93 103 C92.56171875 103.37769531 92.1234375 103.75539063 91.671875 104.14453125 C87.38630204 107.86392079 83.17412545 111.65620575 79 115.5 C75.10039904 119.09075159 71.16239388 122.62623073 67.15625 126.09765625 C62.36862548 130.32152063 57.69450042 134.67323544 53 139 C49.37598787 137.50153206 47.3682297 135.44211507 44.8125 132.5 C44.02359375 131.60152344 43.2346875 130.70304687 42.421875 129.77734375 C41.22304687 128.40255859 41.22304687 128.40255859 40 127 C38.52410649 125.35123085 37.04499509 123.70533587 35.5625 122.0625 C34.45068359 120.825 34.45068359 120.825 33.31640625 119.5625 C31.7279704 117.80530958 30.13115773 116.0556659 28.52734375 114.3125 C24.31300726 109.72688503 20.22078377 105.10051857 16.3125 100.25 C13.2766394 96.4885207 10.14210092 93.02285915 6.671875 89.6640625 C4.27509166 87.27847909 2.09079027 84.72744074 -0.1171875 82.16796875 C-2.2157532 79.75157049 -4.354397 77.37470976 -6.5 75 C-9.13180445 72.08511071 -11.74286926 69.15726789 -14.3125 66.1875 C-17.97794306 61.97523093 -21.77987615 57.89299108 -25.57714844 53.80004883 C-28.98574562 50.11925975 -32.33045419 46.39351649 -35.59765625 42.5859375 C-37.00746606 40.99155649 -38.47969358 39.48872735 -40 38 C-36.97056679 31.24995221 -30.73605451 26.69388422 -25.234375 21.94921875 C-22.62148624 19.66979306 -20.06069979 17.33787647 -17.5 15 C-5.41006098 3.98323171 -5.41006098 3.98323171 0 0 Z " fill="#ACE5AD" transform="translate(1406,1553)"/>
<path d="M0 0 C1.4375 1.328125 1.4375 1.328125 3 3.25 C6.03767117 6.87726135 9.16471248 10.40042731 12.375 13.875 C17.28925986 19.21512884 22.15380889 24.59797335 27 30 C28.49971128 31.66692647 29.99971321 33.33359149 31.5 35 C32.23992187 35.82242187 32.97984375 36.64484375 33.7421875 37.4921875 C35.26708244 39.18592894 36.79315402 40.87861169 38.3203125 42.5703125 C41.73833939 46.35910841 45.1474454 50.15305946 48.5 54 C54.82863406 61.25760787 61.32299868 68.36519716 67.83398438 75.45898438 C72.57391396 80.62318738 77.29708589 85.80204229 82 91 C82.70769531 91.76699219 83.41539063 92.53398438 84.14453125 93.32421875 C85.09392578 94.37029297 85.09392578 94.37029297 86.0625 95.4375 C86.88427734 96.33275391 86.88427734 96.33275391 87.72265625 97.24609375 C89.12658265 99.1738092 89.48796164 100.69627367 90 103 C74.91742407 117.16642727 74.91742407 117.16642727 69.02734375 122.21875 C65.74587902 125.10188664 62.56089279 128.09448472 59.38598633 131.09448242 C56.10685604 134.14492567 52.76721703 136.61335064 49 139 C44.44505037 134.55152971 40.06692704 130.02526453 35.9140625 125.19921875 C33.64845431 122.59608118 31.32696448 120.04841276 29 117.5 C25.54424587 113.71065874 22.1347711 109.88916302 18.76953125 106.01953125 C15.22421912 101.97333617 11.60477095 97.99316378 8 94 C5.75203023 91.50312008 3.50491993 89.00546849 1.2578125 86.5078125 C-0.26708244 84.81407106 -1.79315402 83.12138831 -3.3203125 81.4296875 C-6.69912708 77.68435744 -10.06895965 73.93481793 -13.375 70.125 C-16.82610439 66.16024286 -20.38392084 62.29578334 -23.94604492 58.43115234 C-26.57323507 55.57541249 -29.1570158 52.6916155 -31.6875 49.75 C-35.25494914 45.628384 -39.10185765 41.80701695 -43 38 C-41.66412866 34.95499915 -40.3130032 33.16304828 -37.75 31.0625 C-33.71865101 27.65645149 -29.85264229 24.10462908 -26 20.5 C-21.66114968 16.45242834 -17.31255721 12.43109748 -12.80859375 8.56640625 C-11.47021839 7.40725178 -10.15293125 6.22364842 -8.84765625 5.02734375 C-8.13480469 4.37894531 -7.42195313 3.73054688 -6.6875 3.0625 C-6.05199219 2.47597656 -5.41648437 1.88945313 -4.76171875 1.28515625 C-3 0 -3 0 0 0 Z " fill="#ACE5AD" transform="translate(1325,1553)"/>
<path d="M0 0 C2.80955324 1.53401607 4.26372235 3.59303265 6.203125 6.12890625 C9.60595231 10.44659205 13.12638986 14.35595909 17.0625 18.18359375 C19.52708499 20.6379945 21.78084975 23.24207687 24.046875 25.87890625 C26.26258148 28.42152024 28.54411092 30.89750823 30.828125 33.37890625 C34.20941385 37.07783132 37.43971515 40.84712709 40.578125 44.75390625 C43.86366425 48.82612392 47.31432408 52.53871402 51.0625 56.18359375 C53.52370431 58.6346278 55.77443973 61.23546835 58.0390625 63.8671875 C60.30467069 66.47032507 62.62616052 69.01799349 64.953125 71.56640625 C68.31791161 75.25405095 71.62595426 78.9784686 74.88671875 82.7578125 C76.64011203 84.71670746 78.42549607 86.6278001 80.23828125 88.53125 C80.82762451 89.15346436 81.41696777 89.77567871 82.02416992 90.41674805 C83.20954506 91.66500951 84.40096197 92.90756642 85.59887695 94.14379883 C86.42005005 95.01041138 86.42005005 95.01041138 87.2578125 95.89453125 C87.75265137 96.40918945 88.24749023 96.92384766 88.75732422 97.45410156 C90.12367248 99.29635634 90.54116231 100.8276105 90.953125 103.06640625 C78.11011456 114.98926198 78.11011456 114.98926198 72.04296875 120.22265625 C69.83829548 122.16771379 67.68403185 124.16318881 65.53051758 126.16455078 C60.5465883 130.79132803 55.50113048 135.11878697 49.953125 139.06640625 C44.6923802 133.90092645 39.52295463 128.7195682 34.72265625 123.12109375 C32.70710291 120.78073822 30.64667907 118.48503615 28.578125 116.19140625 C27.81757812 115.34707031 27.05703125 114.50273438 26.2734375 113.6328125 C24.75147413 111.94942877 23.22555874 110.2696079 21.6953125 108.59375 C17.77454046 104.283633 13.98510337 99.91603873 10.328125 95.37890625 C7.27012896 91.59888337 4.11553714 88.10892442 0.625 84.73046875 C-1.77178334 82.34488534 -3.95608473 79.79384699 -6.1640625 77.234375 C-8.94418895 74.03319205 -11.79500191 70.89683324 -14.640625 67.75390625 C-16.56114918 65.60890522 -18.4560363 63.4470796 -20.34375 61.2734375 C-24.06747816 57.01016916 -27.91502505 52.87302358 -31.796875 48.75390625 C-32.45558594 48.05201172 -33.11429688 47.35011719 -33.79296875 46.62695312 C-36.50988069 43.73644539 -39.22908909 40.85916648 -42.046875 38.06640625 C-40.44205492 33.81058592 -37.22524345 31.20754458 -33.921875 28.25390625 C-33.33220947 27.71838135 -32.74254395 27.18285645 -32.13500977 26.63110352 C-28.5111651 23.34930922 -24.84820247 20.11393593 -21.1484375 16.91796875 C-17.82879151 13.99322488 -14.58667933 10.98364746 -11.34545898 7.97241211 C-9.92355782 6.6584495 -8.48543834 5.36210537 -7.046875 4.06640625 C-5.75330078 2.88111328 -5.75330078 2.88111328 -4.43359375 1.671875 C-2.046875 0.06640625 -2.046875 0.06640625 0 0 Z " fill="#ACE5AD" transform="translate(1570.046875,1552.93359375)"/>
<path d="M0 0 C13.53 0 27.06 0 41 0 C41 23.1 41 46.2 41 70 C27.47 70 13.94 70 0 70 C0 46.9 0 23.8 0 0 Z " fill="#BABCBC" transform="translate(1729,220)"/>
<path d="M0 0 C5.22203906 4.32029521 9.90372755 8.89965354 14.5 13.875 C15.12519531 14.54402344 15.75039062 15.21304687 16.39453125 15.90234375 C20.14704112 19.93454379 23.80939464 24.0357026 27.42382812 28.19189453 C29.42300247 30.48524725 31.45804952 32.74471141 33.5 35 C37.37699282 39.29594745 41.20502898 43.63151246 45 48 C44.34 48.99 43.68 49.98 43 51 C36.91860597 45.14713435 31.42414133 39.19179487 26.15625 32.59765625 C23.57624576 29.48949897 20.78368108 26.69613869 17.890625 23.8828125 C15.43923395 21.44155116 13.19664455 18.85198706 10.94140625 16.23046875 C7.04106971 11.749398 3.00682836 7.38574371 -1 3 C-0.67 2.01 -0.34 1.02 0 0 Z " fill="#F2F9EF" transform="translate(1607,1591)"/>
</svg>
